<svg width="1600" height="900" viewBox="0 0 1600 900" fill="none" xmlns="http://www.w3.org/2000/svg">
<g clip-path="url(#clip0_334_248)">
<rect width="1600" height="900" fill="#567DF4"/>
<path d="M991.506 292C1061.92 292 1119 234.469 1119 163.5C1119 92.5314 1061.92 35 991.506 35C921.092 35 864.011 92.5314 864.011 163.5C864.011 234.469 921.092 292 991.506 292Z" stroke="#192342" stroke-width="2" stroke-miterlimit="10"/>
<path d="M936.748 256.469C939.396 240.162 928.426 224.78 912.247 222.111C896.067 219.443 880.805 230.499 878.157 246.806C875.509 263.113 886.479 278.496 902.658 281.164C918.838 283.833 934.1 272.776 936.748 256.469Z" stroke="#F3F6FF" stroke-miterlimit="10"/>
<path d="M913.557 235.524C917.282 219.433 907.36 203.346 891.395 199.592C875.43 195.838 859.469 205.838 855.744 221.929C852.02 238.02 861.942 254.107 877.907 257.861C893.871 261.615 909.833 251.614 913.557 235.524Z" fill="#F3F6FF" stroke="#F3F6FF" stroke-miterlimit="10"/>
<path d="M692.195 464.304C692.339 464.304 692.463 464.36 692.567 464.472L693.575 465.576C692.871 466.408 692.011 467.052 690.995 467.508C689.987 467.964 688.771 468.192 687.347 468.192C686.099 468.192 684.967 467.976 683.951 467.544C682.943 467.112 682.079 466.508 681.359 465.732C680.647 464.956 680.095 464.028 679.703 462.948C679.311 461.868 679.115 460.68 679.115 459.384C679.115 458.088 679.319 456.9 679.727 455.82C680.143 454.74 680.723 453.812 681.467 453.036C682.211 452.26 683.099 451.656 684.131 451.224C685.171 450.792 686.319 450.576 687.575 450.576C688.799 450.576 689.887 450.776 690.839 451.176C691.791 451.576 692.619 452.108 693.323 452.772L692.483 453.96C692.427 454.048 692.355 454.12 692.267 454.176C692.187 454.232 692.079 454.26 691.943 454.26C691.791 454.26 691.611 454.184 691.403 454.032C691.203 453.88 690.935 453.712 690.599 453.528C690.271 453.336 689.863 453.164 689.375 453.012C688.887 452.86 688.279 452.784 687.551 452.784C686.695 452.784 685.911 452.936 685.199 453.24C684.487 453.536 683.871 453.968 683.351 454.536C682.839 455.096 682.439 455.788 682.151 456.612C681.871 457.428 681.731 458.352 681.731 459.384C681.731 460.432 681.879 461.364 682.175 462.18C682.471 462.996 682.879 463.688 683.399 464.256C683.919 464.824 684.531 465.256 685.235 465.552C685.939 465.848 686.699 465.996 687.515 465.996C688.011 465.996 688.455 465.968 688.847 465.912C689.247 465.848 689.611 465.756 689.939 465.636C690.275 465.516 690.591 465.364 690.887 465.18C691.183 464.988 691.475 464.76 691.763 464.496C691.827 464.44 691.895 464.396 691.967 464.364C692.039 464.324 692.115 464.304 692.195 464.304ZM700.625 455.616C701.521 455.616 702.329 455.764 703.049 456.06C703.777 456.348 704.393 456.768 704.897 457.32C705.409 457.864 705.801 458.524 706.073 459.3C706.345 460.068 706.481 460.932 706.481 461.892C706.481 462.852 706.345 463.72 706.073 464.496C705.801 465.272 705.409 465.932 704.897 466.476C704.393 467.02 703.777 467.44 703.049 467.736C702.329 468.024 701.521 468.168 700.625 468.168C699.721 468.168 698.905 468.024 698.177 467.736C697.457 467.44 696.841 467.02 696.329 466.476C695.817 465.932 695.421 465.272 695.141 464.496C694.869 463.72 694.733 462.852 694.733 461.892C694.733 460.932 694.869 460.068 695.141 459.3C695.421 458.524 695.817 457.864 696.329 457.32C696.841 456.768 697.457 456.348 698.177 456.06C698.905 455.764 699.721 455.616 700.625 455.616ZM700.625 466.344C701.777 466.344 702.637 465.956 703.205 465.18C703.773 464.404 704.057 463.312 704.057 461.904C704.057 460.496 703.773 459.404 703.205 458.628C702.637 457.844 701.777 457.452 700.625 457.452C699.457 457.452 698.585 457.844 698.009 458.628C697.441 459.404 697.157 460.496 697.157 461.904C697.157 463.312 697.441 464.404 698.009 465.18C698.585 465.956 699.457 466.344 700.625 466.344ZM711.289 457.5C711.553 457.22 711.829 456.964 712.117 456.732C712.405 456.5 712.709 456.304 713.029 456.144C713.357 455.976 713.705 455.848 714.073 455.76C714.449 455.664 714.849 455.616 715.273 455.616C715.945 455.616 716.533 455.728 717.037 455.952C717.549 456.176 717.977 456.492 718.321 456.9C718.665 457.3 718.925 457.784 719.101 458.352C719.277 458.92 719.365 459.548 719.365 460.236V468H717.013V460.236C717.013 459.364 716.813 458.688 716.413 458.208C716.013 457.72 715.401 457.476 714.577 457.476C713.977 457.476 713.413 457.62 712.885 457.908C712.365 458.188 711.881 458.572 711.433 459.06V468H709.093V455.808H710.497C710.825 455.808 711.029 455.964 711.109 456.276L711.289 457.5ZM726.807 461.916C727.223 461.916 727.587 461.86 727.899 461.748C728.219 461.636 728.483 461.48 728.691 461.28C728.907 461.072 729.067 460.824 729.171 460.536C729.283 460.248 729.339 459.932 729.339 459.588C729.339 458.884 729.123 458.324 728.691 457.908C728.267 457.484 727.639 457.272 726.807 457.272C725.983 457.272 725.355 457.484 724.923 457.908C724.499 458.324 724.287 458.884 724.287 459.588C724.287 459.932 724.339 460.248 724.443 460.536C724.555 460.816 724.715 461.06 724.923 461.268C725.139 461.468 725.403 461.628 725.715 461.748C726.035 461.86 726.399 461.916 726.807 461.916ZM730.539 468.636C730.539 468.348 730.459 468.12 730.299 467.952C730.139 467.776 729.919 467.64 729.639 467.544C729.367 467.44 729.047 467.368 728.679 467.328C728.311 467.28 727.923 467.244 727.515 467.22C727.115 467.196 726.703 467.176 726.279 467.16C725.855 467.136 725.447 467.096 725.055 467.04C724.639 467.248 724.295 467.5 724.023 467.796C723.759 468.092 723.627 468.44 723.627 468.84C723.627 469.096 723.691 469.336 723.819 469.56C723.955 469.784 724.159 469.976 724.431 470.136C724.711 470.304 725.059 470.432 725.475 470.52C725.899 470.616 726.403 470.664 726.987 470.664C727.563 470.664 728.071 470.612 728.511 470.508C728.951 470.412 729.319 470.272 729.615 470.088C729.919 469.912 730.147 469.7 730.299 469.452C730.459 469.204 730.539 468.932 730.539 468.636ZM732.915 456.264V457.14C732.915 457.428 732.735 457.608 732.375 457.68L731.067 457.872C731.179 458.12 731.267 458.384 731.331 458.664C731.395 458.936 731.427 459.224 731.427 459.528C731.427 460.128 731.311 460.672 731.079 461.16C730.847 461.64 730.527 462.052 730.119 462.396C729.711 462.74 729.223 463.004 728.655 463.188C728.095 463.372 727.479 463.464 726.807 463.464C726.255 463.464 725.739 463.404 725.259 463.284C725.019 463.428 724.835 463.588 724.707 463.764C724.587 463.932 724.527 464.1 724.527 464.268C724.527 464.548 724.643 464.756 724.875 464.892C725.115 465.028 725.423 465.128 725.799 465.192C726.183 465.248 726.619 465.284 727.107 465.3C727.603 465.316 728.103 465.344 728.607 465.384C729.119 465.416 729.619 465.48 730.107 465.576C730.603 465.664 731.039 465.812 731.415 466.02C731.799 466.22 732.107 466.5 732.339 466.86C732.579 467.212 732.699 467.672 732.699 468.24C732.699 468.768 732.567 469.28 732.303 469.776C732.047 470.272 731.671 470.712 731.175 471.096C730.679 471.48 730.075 471.788 729.363 472.02C728.651 472.252 727.843 472.368 726.939 472.368C726.035 472.368 725.247 472.28 724.575 472.104C723.911 471.928 723.355 471.692 722.907 471.396C722.467 471.1 722.135 470.756 721.911 470.364C721.695 469.972 721.587 469.564 721.587 469.14C721.587 468.548 721.771 468.048 722.139 467.64C722.507 467.224 723.015 466.9 723.663 466.668C723.311 466.508 723.031 466.292 722.823 466.02C722.615 465.74 722.511 465.372 722.511 464.916C722.511 464.74 722.543 464.56 722.607 464.376C722.671 464.184 722.767 463.996 722.895 463.812C723.031 463.62 723.195 463.44 723.387 463.272C723.587 463.104 723.815 462.952 724.071 462.816C723.471 462.48 722.999 462.036 722.655 461.484C722.311 460.924 722.139 460.272 722.139 459.528C722.139 458.928 722.255 458.388 722.487 457.908C722.719 457.428 723.039 457.016 723.447 456.672C723.863 456.328 724.355 456.064 724.923 455.88C725.499 455.696 726.127 455.604 726.807 455.604C727.863 455.604 728.771 455.824 729.531 456.264H732.915ZM737.27 458.148C737.662 457.348 738.134 456.72 738.686 456.264C739.238 455.808 739.902 455.58 740.678 455.58C740.942 455.58 741.19 455.612 741.422 455.676C741.662 455.732 741.87 455.82 742.046 455.94L741.89 457.704C741.834 457.92 741.702 458.028 741.494 458.028C741.382 458.028 741.214 458.008 740.99 457.968C740.766 457.92 740.526 457.896 740.27 457.896C739.894 457.896 739.562 457.952 739.274 458.064C738.986 458.168 738.726 458.328 738.494 458.544C738.27 458.752 738.07 459.012 737.894 459.324C737.718 459.628 737.554 459.976 737.402 460.368V468H735.062V455.808H736.406C736.662 455.808 736.834 455.856 736.922 455.952C737.018 456.04 737.086 456.2 737.126 456.432L737.27 458.148ZM750.216 462.588C749.264 462.62 748.456 462.696 747.792 462.816C747.128 462.928 746.588 463.08 746.172 463.272C745.756 463.464 745.456 463.692 745.272 463.956C745.088 464.212 744.996 464.5 744.996 464.82C744.996 465.124 745.044 465.388 745.14 465.612C745.244 465.828 745.38 466.008 745.548 466.152C745.724 466.288 745.928 466.388 746.16 466.452C746.392 466.516 746.644 466.548 746.916 466.548C747.276 466.548 747.604 466.512 747.9 466.44C748.204 466.368 748.488 466.268 748.752 466.14C749.016 466.004 749.268 465.84 749.508 465.648C749.748 465.456 749.984 465.236 750.216 464.988V462.588ZM743.352 457.512C744.032 456.864 744.768 456.38 745.56 456.06C746.36 455.74 747.236 455.58 748.188 455.58C748.884 455.58 749.5 455.696 750.036 455.928C750.572 456.152 751.024 456.468 751.392 456.876C751.76 457.284 752.036 457.772 752.22 458.34C752.412 458.908 752.508 459.536 752.508 460.224V468H751.464C751.232 468 751.056 467.964 750.936 467.892C750.816 467.812 750.72 467.668 750.648 467.46L750.396 466.392C750.084 466.68 749.776 466.936 749.472 467.16C749.168 467.376 748.848 467.564 748.512 467.724C748.184 467.876 747.832 467.992 747.456 468.072C747.08 468.152 746.664 468.192 746.208 468.192C745.728 468.192 745.276 468.128 744.852 468C744.436 467.864 744.072 467.66 743.76 467.388C743.448 467.116 743.2 466.776 743.016 466.368C742.84 465.96 742.752 465.484 742.752 464.94C742.752 464.46 742.88 464 743.136 463.56C743.4 463.112 743.824 462.712 744.408 462.36C745 462.008 745.768 461.72 746.712 461.496C747.664 461.272 748.832 461.144 750.216 461.112V460.224C750.216 459.304 750.02 458.616 749.628 458.16C749.236 457.704 748.66 457.476 747.9 457.476C747.388 457.476 746.956 457.54 746.604 457.668C746.26 457.796 745.96 457.94 745.704 458.1C745.456 458.252 745.236 458.392 745.044 458.52C744.86 458.648 744.668 458.712 744.468 458.712C744.308 458.712 744.168 458.668 744.048 458.58C743.936 458.492 743.844 458.388 743.772 458.268L743.352 457.512ZM759.292 468.192C758.308 468.192 757.548 467.916 757.012 467.364C756.484 466.812 756.22 466.024 756.22 465V457.704H754.804C754.668 457.704 754.552 457.664 754.456 457.584C754.368 457.496 754.324 457.368 754.324 457.2V456.252L756.304 455.976L756.832 452.34C756.864 452.204 756.924 452.1 757.012 452.028C757.108 451.948 757.228 451.908 757.372 451.908H758.56V456H762.016V457.704H758.56V464.844C758.56 465.324 758.676 465.684 758.908 465.924C759.148 466.156 759.452 466.272 759.82 466.272C760.036 466.272 760.22 466.244 760.372 466.188C760.532 466.132 760.668 466.072 760.78 466.008C760.892 465.936 760.988 465.872 761.068 465.816C761.148 465.76 761.22 465.732 761.284 465.732C761.364 465.732 761.424 465.752 761.464 465.792C761.512 465.824 761.56 465.88 761.608 465.96L762.304 467.088C761.92 467.44 761.464 467.712 760.936 467.904C760.408 468.096 759.86 468.192 759.292 468.192ZM771.359 457.908C771.295 458.012 771.227 458.088 771.155 458.136C771.083 458.176 770.991 458.196 770.879 458.196C770.751 458.196 770.607 458.152 770.447 458.064C770.295 457.976 770.107 457.88 769.883 457.776C769.667 457.672 769.411 457.576 769.115 457.488C768.819 457.4 768.467 457.356 768.059 457.356C767.723 457.356 767.415 457.4 767.135 457.488C766.863 457.568 766.631 457.684 766.439 457.836C766.247 457.98 766.099 458.156 765.995 458.364C765.891 458.564 765.839 458.78 765.839 459.012C765.839 459.316 765.927 459.568 766.103 459.768C766.287 459.968 766.523 460.14 766.811 460.284C767.107 460.428 767.439 460.56 767.807 460.68C768.183 460.792 768.563 460.912 768.947 461.04C769.339 461.168 769.719 461.316 770.087 461.484C770.463 461.644 770.795 461.848 771.083 462.096C771.379 462.336 771.615 462.628 771.791 462.972C771.975 463.316 772.067 463.736 772.067 464.232C772.067 464.8 771.963 465.328 771.755 465.816C771.555 466.296 771.255 466.712 770.855 467.064C770.463 467.416 769.975 467.692 769.391 467.892C768.807 468.092 768.139 468.192 767.387 468.192C766.547 468.192 765.771 468.052 765.059 467.772C764.347 467.492 763.751 467.136 763.271 466.704L763.823 465.804C763.887 465.692 763.967 465.608 764.063 465.552C764.159 465.488 764.287 465.456 764.447 465.456C764.599 465.456 764.755 465.512 764.915 465.624C765.075 465.736 765.267 465.86 765.491 465.996C765.715 466.124 765.987 466.244 766.307 466.356C766.627 466.46 767.027 466.512 767.507 466.512C767.907 466.512 768.255 466.464 768.551 466.368C768.847 466.264 769.091 466.128 769.283 465.96C769.483 465.784 769.631 465.584 769.727 465.36C769.823 465.136 769.871 464.9 769.871 464.652C769.871 464.332 769.779 464.068 769.595 463.86C769.419 463.644 769.183 463.46 768.887 463.308C768.599 463.156 768.267 463.024 767.891 462.912C767.515 462.8 767.131 462.68 766.739 462.552C766.347 462.424 765.963 462.276 765.587 462.108C765.211 461.94 764.875 461.728 764.579 461.472C764.291 461.216 764.055 460.904 763.871 460.536C763.695 460.168 763.607 459.72 763.607 459.192C763.607 458.72 763.703 458.268 763.895 457.836C764.095 457.404 764.379 457.024 764.747 456.696C765.123 456.368 765.583 456.108 766.127 455.916C766.679 455.716 767.307 455.616 768.011 455.616C768.819 455.616 769.547 455.744 770.195 456C770.851 456.256 771.411 456.608 771.875 457.056L771.359 457.908ZM775.657 468C775.441 468 775.241 467.96 775.057 467.88C774.881 467.8 774.725 467.692 774.589 467.556C774.461 467.412 774.361 467.244 774.289 467.052C774.217 466.86 774.181 466.652 774.181 466.428C774.181 466.236 774.217 466.056 774.289 465.888C774.361 465.712 774.461 465.56 774.589 465.432C774.725 465.304 774.885 465.204 775.069 465.132C775.253 465.052 775.457 465.012 775.681 465.012C775.937 465.012 776.161 465.06 776.353 465.156C776.553 465.244 776.717 465.372 776.845 465.54C776.981 465.7 777.081 465.888 777.145 466.104C777.209 466.32 777.241 466.552 777.241 466.8C777.241 467.16 777.189 467.54 777.085 467.94C776.981 468.34 776.829 468.736 776.629 469.128C776.429 469.52 776.181 469.9 775.885 470.268C775.589 470.636 775.253 470.976 774.877 471.288L774.481 470.916C774.361 470.804 774.301 470.68 774.301 470.544C774.301 470.488 774.317 470.428 774.349 470.364C774.389 470.308 774.437 470.252 774.493 470.196C774.573 470.108 774.677 469.992 774.805 469.848C774.933 469.704 775.057 469.536 775.177 469.344C775.305 469.16 775.421 468.952 775.525 468.72C775.637 468.496 775.717 468.256 775.765 468H775.657ZM796.202 455.808L789.434 471.54C789.362 471.716 789.266 471.852 789.146 471.948C789.026 472.044 788.85 472.092 788.618 472.092H786.878L789.11 467.232L784.106 455.808H786.146C786.346 455.808 786.502 455.856 786.614 455.952C786.726 456.048 786.806 456.156 786.854 456.276L789.95 463.596C790.014 463.78 790.074 463.968 790.13 464.16C790.194 464.344 790.246 464.528 790.286 464.712C790.342 464.52 790.402 464.332 790.466 464.148C790.53 463.956 790.598 463.768 790.67 463.584L793.658 456.276C793.714 456.14 793.802 456.028 793.922 455.94C794.042 455.852 794.178 455.808 794.33 455.808H796.202ZM802.836 455.616C803.732 455.616 804.54 455.764 805.26 456.06C805.988 456.348 806.604 456.768 807.108 457.32C807.62 457.864 808.012 458.524 808.284 459.3C808.556 460.068 808.692 460.932 808.692 461.892C808.692 462.852 808.556 463.72 808.284 464.496C808.012 465.272 807.62 465.932 807.108 466.476C806.604 467.02 805.988 467.44 805.26 467.736C804.54 468.024 803.732 468.168 802.836 468.168C801.932 468.168 801.116 468.024 800.388 467.736C799.668 467.44 799.052 467.02 798.54 466.476C798.028 465.932 797.632 465.272 797.352 464.496C797.08 463.72 796.944 462.852 796.944 461.892C796.944 460.932 797.08 460.068 797.352 459.3C797.632 458.524 798.028 457.864 798.54 457.32C799.052 456.768 799.668 456.348 800.388 456.06C801.116 455.764 801.932 455.616 802.836 455.616ZM802.836 466.344C803.988 466.344 804.848 465.956 805.416 465.18C805.984 464.404 806.268 463.312 806.268 461.904C806.268 460.496 805.984 459.404 805.416 458.628C804.848 457.844 803.988 457.452 802.836 457.452C801.668 457.452 800.796 457.844 800.22 458.628C799.652 459.404 799.368 460.496 799.368 461.904C799.368 463.312 799.652 464.404 800.22 465.18C800.796 465.956 801.668 466.344 802.836 466.344ZM821.444 455.808V468H820.04C819.72 468 819.512 467.844 819.416 467.532L819.248 466.308C818.984 466.588 818.708 466.844 818.42 467.076C818.132 467.308 817.824 467.508 817.496 467.676C817.168 467.836 816.82 467.96 816.452 468.048C816.084 468.144 815.688 468.192 815.264 468.192C814.592 468.192 814 468.08 813.488 467.856C812.984 467.632 812.56 467.32 812.216 466.92C811.872 466.512 811.612 466.024 811.436 465.456C811.26 464.888 811.172 464.26 811.172 463.572V455.808H813.524V463.572C813.524 464.444 813.724 465.124 814.124 465.612C814.524 466.092 815.136 466.332 815.96 466.332C816.56 466.332 817.12 466.192 817.64 465.912C818.16 465.624 818.648 465.232 819.104 464.736V455.808H821.444ZM826.918 458.148C827.31 457.348 827.782 456.72 828.334 456.264C828.886 455.808 829.55 455.58 830.326 455.58C830.59 455.58 830.838 455.612 831.07 455.676C831.31 455.732 831.518 455.82 831.694 455.94L831.538 457.704C831.482 457.92 831.35 458.028 831.142 458.028C831.03 458.028 830.862 458.008 830.638 457.968C830.414 457.92 830.174 457.896 829.918 457.896C829.542 457.896 829.21 457.952 828.922 458.064C828.634 458.168 828.374 458.328 828.142 458.544C827.918 458.752 827.718 459.012 827.542 459.324C827.366 459.628 827.202 459.976 827.05 460.368V468H824.71V455.808H826.054C826.31 455.808 826.482 455.856 826.57 455.952C826.666 456.04 826.734 456.2 826.774 456.432L826.918 458.148ZM845.606 462.588C844.654 462.62 843.846 462.696 843.182 462.816C842.518 462.928 841.978 463.08 841.562 463.272C841.146 463.464 840.846 463.692 840.662 463.956C840.478 464.212 840.386 464.5 840.386 464.82C840.386 465.124 840.434 465.388 840.53 465.612C840.634 465.828 840.77 466.008 840.938 466.152C841.114 466.288 841.318 466.388 841.55 466.452C841.782 466.516 842.034 466.548 842.306 466.548C842.666 466.548 842.994 466.512 843.29 466.44C843.594 466.368 843.878 466.268 844.142 466.14C844.406 466.004 844.658 465.84 844.898 465.648C845.138 465.456 845.374 465.236 845.606 464.988V462.588ZM838.742 457.512C839.422 456.864 840.158 456.38 840.95 456.06C841.75 455.74 842.626 455.58 843.578 455.58C844.274 455.58 844.89 455.696 845.426 455.928C845.962 456.152 846.414 456.468 846.782 456.876C847.15 457.284 847.426 457.772 847.61 458.34C847.802 458.908 847.898 459.536 847.898 460.224V468H846.854C846.622 468 846.446 467.964 846.326 467.892C846.206 467.812 846.11 467.668 846.038 467.46L845.786 466.392C845.474 466.68 845.166 466.936 844.862 467.16C844.558 467.376 844.238 467.564 843.902 467.724C843.574 467.876 843.222 467.992 842.846 468.072C842.47 468.152 842.054 468.192 841.598 468.192C841.118 468.192 840.666 468.128 840.242 468C839.826 467.864 839.462 467.66 839.15 467.388C838.838 467.116 838.59 466.776 838.406 466.368C838.23 465.96 838.142 465.484 838.142 464.94C838.142 464.46 838.27 464 838.526 463.56C838.79 463.112 839.214 462.712 839.798 462.36C840.39 462.008 841.158 461.72 842.102 461.496C843.054 461.272 844.222 461.144 845.606 461.112V460.224C845.606 459.304 845.41 458.616 845.018 458.16C844.626 457.704 844.05 457.476 843.29 457.476C842.778 457.476 842.346 457.54 841.994 457.668C841.65 457.796 841.35 457.94 841.094 458.1C840.846 458.252 840.626 458.392 840.434 458.52C840.25 458.648 840.058 458.712 839.858 458.712C839.698 458.712 839.558 458.668 839.438 458.58C839.326 458.492 839.234 458.388 839.162 458.268L838.742 457.512ZM859.575 458.088C859.503 458.176 859.431 458.248 859.359 458.304C859.295 458.352 859.199 458.376 859.071 458.376C858.943 458.376 858.807 458.328 858.663 458.232C858.527 458.128 858.351 458.02 858.135 457.908C857.927 457.788 857.671 457.68 857.367 457.584C857.071 457.48 856.703 457.428 856.263 457.428C855.687 457.428 855.179 457.532 854.739 457.74C854.299 457.948 853.931 458.244 853.635 458.628C853.347 459.012 853.127 459.48 852.975 460.032C852.823 460.584 852.747 461.204 852.747 461.892C852.747 462.604 852.827 463.24 852.987 463.8C853.147 464.352 853.375 464.82 853.671 465.204C853.967 465.58 854.327 465.868 854.751 466.068C855.175 466.26 855.647 466.356 856.167 466.356C856.671 466.356 857.087 466.296 857.415 466.176C857.743 466.048 858.015 465.912 858.231 465.768C858.447 465.624 858.627 465.492 858.771 465.372C858.915 465.244 859.063 465.18 859.215 465.18C859.407 465.18 859.555 465.252 859.659 465.396L860.331 466.26C860.051 466.604 859.735 466.896 859.383 467.136C859.039 467.376 858.671 467.572 858.279 467.724C857.887 467.876 857.475 467.988 857.043 468.06C856.619 468.132 856.187 468.168 855.747 468.168C854.987 468.168 854.275 468.028 853.611 467.748C852.955 467.468 852.383 467.06 851.895 466.524C851.415 465.988 851.035 465.332 850.755 464.556C850.475 463.772 850.335 462.884 850.335 461.892C850.335 460.988 850.459 460.152 850.707 459.384C850.963 458.616 851.335 457.956 851.823 457.404C852.319 456.844 852.927 456.408 853.647 456.096C854.367 455.776 855.191 455.616 856.119 455.616C856.991 455.616 857.759 455.756 858.423 456.036C859.087 456.316 859.679 456.712 860.199 457.224L859.575 458.088ZM870.848 458.088C870.776 458.176 870.704 458.248 870.632 458.304C870.568 458.352 870.472 458.376 870.344 458.376C870.216 458.376 870.08 458.328 869.936 458.232C869.8 458.128 869.624 458.02 869.408 457.908C869.2 457.788 868.944 457.68 868.64 457.584C868.344 457.48 867.976 457.428 867.536 457.428C866.96 457.428 866.452 457.532 866.012 457.74C865.572 457.948 865.204 458.244 864.908 458.628C864.62 459.012 864.4 459.48 864.248 460.032C864.096 460.584 864.02 461.204 864.02 461.892C864.02 462.604 864.1 463.24 864.26 463.8C864.42 464.352 864.648 464.82 864.944 465.204C865.24 465.58 865.6 465.868 866.024 466.068C866.448 466.26 866.92 466.356 867.44 466.356C867.944 466.356 868.36 466.296 868.688 466.176C869.016 466.048 869.288 465.912 869.504 465.768C869.72 465.624 869.9 465.492 870.044 465.372C870.188 465.244 870.336 465.18 870.488 465.18C870.68 465.18 870.828 465.252 870.932 465.396L871.604 466.26C871.324 466.604 871.008 466.896 870.656 467.136C870.312 467.376 869.944 467.572 869.552 467.724C869.16 467.876 868.748 467.988 868.316 468.06C867.892 468.132 867.46 468.168 867.02 468.168C866.26 468.168 865.548 468.028 864.884 467.748C864.228 467.468 863.656 467.06 863.168 466.524C862.688 465.988 862.308 465.332 862.028 464.556C861.748 463.772 861.608 462.884 861.608 461.892C861.608 460.988 861.732 460.152 861.98 459.384C862.236 458.616 862.608 457.956 863.096 457.404C863.592 456.844 864.2 456.408 864.92 456.096C865.64 455.776 866.464 455.616 867.392 455.616C868.264 455.616 869.032 455.756 869.696 456.036C870.36 456.316 870.952 456.712 871.472 457.224L870.848 458.088ZM878.774 455.616C879.67 455.616 880.478 455.764 881.198 456.06C881.926 456.348 882.542 456.768 883.046 457.32C883.558 457.864 883.95 458.524 884.222 459.3C884.494 460.068 884.63 460.932 884.63 461.892C884.63 462.852 884.494 463.72 884.222 464.496C883.95 465.272 883.558 465.932 883.046 466.476C882.542 467.02 881.926 467.44 881.198 467.736C880.478 468.024 879.67 468.168 878.774 468.168C877.87 468.168 877.054 468.024 876.326 467.736C875.606 467.44 874.99 467.02 874.478 466.476C873.966 465.932 873.57 465.272 873.29 464.496C873.018 463.72 872.882 462.852 872.882 461.892C872.882 460.932 873.018 460.068 873.29 459.3C873.57 458.524 873.966 457.864 874.478 457.32C874.99 456.768 875.606 456.348 876.326 456.06C877.054 455.764 877.87 455.616 878.774 455.616ZM878.774 466.344C879.926 466.344 880.786 465.956 881.354 465.18C881.922 464.404 882.206 463.312 882.206 461.904C882.206 460.496 881.922 459.404 881.354 458.628C880.786 457.844 879.926 457.452 878.774 457.452C877.606 457.452 876.734 457.844 876.158 458.628C875.59 459.404 875.306 460.496 875.306 461.904C875.306 463.312 875.59 464.404 876.158 465.18C876.734 465.956 877.606 466.344 878.774 466.344ZM897.382 455.808V468H895.978C895.658 468 895.45 467.844 895.354 467.532L895.186 466.308C894.922 466.588 894.646 466.844 894.358 467.076C894.07 467.308 893.762 467.508 893.434 467.676C893.106 467.836 892.758 467.96 892.39 468.048C892.022 468.144 891.626 468.192 891.202 468.192C890.53 468.192 889.938 468.08 889.426 467.856C888.922 467.632 888.498 467.32 888.154 466.92C887.81 466.512 887.55 466.024 887.374 465.456C887.198 464.888 887.11 464.26 887.11 463.572V455.808H889.462V463.572C889.462 464.444 889.662 465.124 890.062 465.612C890.462 466.092 891.074 466.332 891.898 466.332C892.498 466.332 893.058 466.192 893.578 465.912C894.098 465.624 894.586 465.232 895.042 464.736V455.808H897.382ZM902.844 457.5C903.108 457.22 903.384 456.964 903.672 456.732C903.96 456.5 904.264 456.304 904.584 456.144C904.912 455.976 905.26 455.848 905.628 455.76C906.004 455.664 906.404 455.616 906.828 455.616C907.5 455.616 908.088 455.728 908.592 455.952C909.104 456.176 909.532 456.492 909.876 456.9C910.22 457.3 910.48 457.784 910.656 458.352C910.832 458.92 910.92 459.548 910.92 460.236V468H908.568V460.236C908.568 459.364 908.368 458.688 907.968 458.208C907.568 457.72 906.956 457.476 906.132 457.476C905.532 457.476 904.968 457.62 904.44 457.908C903.92 458.188 903.436 458.572 902.988 459.06V468H900.648V455.808H902.052C902.38 455.808 902.584 455.964 902.664 456.276L902.844 457.5ZM917.73 468.192C916.746 468.192 915.986 467.916 915.45 467.364C914.922 466.812 914.658 466.024 914.658 465V457.704H913.242C913.106 457.704 912.99 457.664 912.894 457.584C912.806 457.496 912.762 457.368 912.762 457.2V456.252L914.742 455.976L915.27 452.34C915.302 452.204 915.362 452.1 915.45 452.028C915.546 451.948 915.666 451.908 915.81 451.908H916.998V456H920.454V457.704H916.998V464.844C916.998 465.324 917.114 465.684 917.346 465.924C917.586 466.156 917.89 466.272 918.258 466.272C918.474 466.272 918.658 466.244 918.81 466.188C918.97 466.132 919.106 466.072 919.218 466.008C919.33 465.936 919.426 465.872 919.506 465.816C919.586 465.76 919.658 465.732 919.722 465.732C919.802 465.732 919.862 465.752 919.902 465.792C919.95 465.824 919.998 465.88 920.046 465.96L920.742 467.088C920.358 467.44 919.902 467.712 919.374 467.904C918.846 468.096 918.298 468.192 917.73 468.192ZM648.152 498.356C648.664 497.836 649.228 497.416 649.844 497.096C650.468 496.776 651.184 496.616 651.992 496.616C652.664 496.616 653.252 496.728 653.756 496.952C654.268 497.176 654.696 497.492 655.04 497.9C655.384 498.3 655.644 498.784 655.82 499.352C655.996 499.92 656.084 500.548 656.084 501.236V509H653.732V501.236C653.732 500.364 653.532 499.688 653.132 499.208C652.732 498.72 652.12 498.476 651.296 498.476C650.696 498.476 650.132 498.62 649.604 498.908C649.084 499.188 648.6 499.572 648.152 500.06V509H645.812V491.288H648.152V498.356ZM665.794 503.588C664.842 503.62 664.034 503.696 663.37 503.816C662.706 503.928 662.166 504.08 661.75 504.272C661.334 504.464 661.034 504.692 660.85 504.956C660.666 505.212 660.574 505.5 660.574 505.82C660.574 506.124 660.622 506.388 660.718 506.612C660.822 506.828 660.958 507.008 661.126 507.152C661.302 507.288 661.506 507.388 661.738 507.452C661.97 507.516 662.222 507.548 662.494 507.548C662.854 507.548 663.182 507.512 663.478 507.44C663.782 507.368 664.066 507.268 664.33 507.14C664.594 507.004 664.846 506.84 665.086 506.648C665.326 506.456 665.562 506.236 665.794 505.988V503.588ZM658.93 498.512C659.61 497.864 660.346 497.38 661.138 497.06C661.938 496.74 662.814 496.58 663.766 496.58C664.462 496.58 665.078 496.696 665.614 496.928C666.15 497.152 666.602 497.468 666.97 497.876C667.338 498.284 667.614 498.772 667.798 499.34C667.99 499.908 668.086 500.536 668.086 501.224V509H667.042C666.81 509 666.634 508.964 666.514 508.892C666.394 508.812 666.298 508.668 666.226 508.46L665.974 507.392C665.662 507.68 665.354 507.936 665.05 508.16C664.746 508.376 664.426 508.564 664.09 508.724C663.762 508.876 663.41 508.992 663.034 509.072C662.658 509.152 662.242 509.192 661.786 509.192C661.306 509.192 660.854 509.128 660.43 509C660.014 508.864 659.65 508.66 659.338 508.388C659.026 508.116 658.778 507.776 658.594 507.368C658.418 506.96 658.33 506.484 658.33 505.94C658.33 505.46 658.458 505 658.714 504.56C658.978 504.112 659.402 503.712 659.986 503.36C660.578 503.008 661.346 502.72 662.29 502.496C663.242 502.272 664.41 502.144 665.794 502.112V501.224C665.794 500.304 665.598 499.616 665.206 499.16C664.814 498.704 664.238 498.476 663.478 498.476C662.966 498.476 662.534 498.54 662.182 498.668C661.838 498.796 661.538 498.94 661.282 499.1C661.034 499.252 660.814 499.392 660.622 499.52C660.438 499.648 660.246 499.712 660.046 499.712C659.886 499.712 659.746 499.668 659.626 499.58C659.514 499.492 659.422 499.388 659.35 499.268L658.93 498.512ZM678.406 498.908C678.342 499.012 678.274 499.088 678.202 499.136C678.13 499.176 678.038 499.196 677.926 499.196C677.798 499.196 677.654 499.152 677.494 499.064C677.342 498.976 677.154 498.88 676.93 498.776C676.714 498.672 676.458 498.576 676.162 498.488C675.866 498.4 675.514 498.356 675.106 498.356C674.77 498.356 674.462 498.4 674.182 498.488C673.91 498.568 673.678 498.684 673.486 498.836C673.294 498.98 673.146 499.156 673.042 499.364C672.938 499.564 672.886 499.78 672.886 500.012C672.886 500.316 672.974 500.568 673.15 500.768C673.334 500.968 673.57 501.14 673.858 501.284C674.154 501.428 674.486 501.56 674.854 501.68C675.23 501.792 675.61 501.912 675.994 502.04C676.386 502.168 676.766 502.316 677.134 502.484C677.51 502.644 677.842 502.848 678.13 503.096C678.426 503.336 678.662 503.628 678.838 503.972C679.022 504.316 679.114 504.736 679.114 505.232C679.114 505.8 679.01 506.328 678.802 506.816C678.602 507.296 678.302 507.712 677.902 508.064C677.51 508.416 677.022 508.692 676.438 508.892C675.854 509.092 675.186 509.192 674.434 509.192C673.594 509.192 672.818 509.052 672.106 508.772C671.394 508.492 670.798 508.136 670.318 507.704L670.87 506.804C670.934 506.692 671.014 506.608 671.11 506.552C671.206 506.488 671.334 506.456 671.494 506.456C671.646 506.456 671.802 506.512 671.962 506.624C672.122 506.736 672.314 506.86 672.538 506.996C672.762 507.124 673.034 507.244 673.354 507.356C673.674 507.46 674.074 507.512 674.554 507.512C674.954 507.512 675.302 507.464 675.598 507.368C675.894 507.264 676.138 507.128 676.33 506.96C676.53 506.784 676.678 506.584 676.774 506.36C676.87 506.136 676.918 505.9 676.918 505.652C676.918 505.332 676.826 505.068 676.642 504.86C676.466 504.644 676.23 504.46 675.934 504.308C675.646 504.156 675.314 504.024 674.938 503.912C674.562 503.8 674.178 503.68 673.786 503.552C673.394 503.424 673.01 503.276 672.634 503.108C672.258 502.94 671.922 502.728 671.626 502.472C671.338 502.216 671.102 501.904 670.918 501.536C670.742 501.168 670.654 500.72 670.654 500.192C670.654 499.72 670.75 499.268 670.942 498.836C671.142 498.404 671.426 498.024 671.794 497.696C672.17 497.368 672.63 497.108 673.174 496.916C673.726 496.716 674.354 496.616 675.058 496.616C675.866 496.616 676.594 496.744 677.242 497C677.898 497.256 678.458 497.608 678.922 498.056L678.406 498.908ZM690.058 506C690.442 506.504 690.858 506.856 691.306 507.056C691.754 507.256 692.242 507.356 692.77 507.356C693.858 507.356 694.694 506.968 695.278 506.192C695.87 505.416 696.166 504.244 696.166 502.676C696.166 501.228 695.906 500.168 695.386 499.496C694.866 498.816 694.13 498.476 693.178 498.476C692.506 498.476 691.922 498.628 691.426 498.932C690.938 499.236 690.482 499.668 690.058 500.228V506ZM690.058 498.488C690.562 497.928 691.134 497.476 691.774 497.132C692.414 496.788 693.142 496.616 693.958 496.616C694.67 496.616 695.31 496.756 695.878 497.036C696.454 497.308 696.942 497.704 697.342 498.224C697.742 498.736 698.05 499.36 698.266 500.096C698.482 500.832 698.59 501.664 698.59 502.592C698.59 503.576 698.466 504.472 698.218 505.28C697.978 506.088 697.63 506.78 697.174 507.356C696.726 507.932 696.178 508.38 695.53 508.7C694.882 509.012 694.154 509.168 693.346 509.168C692.954 509.168 692.594 509.128 692.266 509.048C691.938 508.976 691.634 508.868 691.354 508.724C691.082 508.58 690.83 508.404 690.598 508.196C690.366 507.988 690.146 507.752 689.938 507.488L689.83 508.508C689.766 508.836 689.566 509 689.23 509H687.718V491.288H690.058V498.488ZM709.271 501.548C709.271 501.084 709.203 500.656 709.067 500.264C708.939 499.872 708.747 499.532 708.491 499.244C708.235 498.956 707.923 498.732 707.555 498.572C707.187 498.412 706.763 498.332 706.283 498.332C705.299 498.332 704.523 498.616 703.955 499.184C703.395 499.752 703.039 500.54 702.887 501.548H709.271ZM711.203 507.26C710.915 507.596 710.583 507.888 710.207 508.136C709.831 508.376 709.431 508.572 709.007 508.724C708.583 508.876 708.143 508.988 707.687 509.06C707.239 509.132 706.795 509.168 706.355 509.168C705.515 509.168 704.735 509.028 704.015 508.748C703.303 508.46 702.683 508.044 702.155 507.5C701.635 506.948 701.227 506.268 700.931 505.46C700.643 504.644 700.499 503.708 700.499 502.652C700.499 501.804 700.631 501.016 700.895 500.288C701.159 499.552 701.535 498.912 702.023 498.368C702.519 497.824 703.123 497.396 703.835 497.084C704.547 496.772 705.347 496.616 706.235 496.616C706.979 496.616 707.663 496.74 708.287 496.988C708.919 497.228 709.463 497.58 709.919 498.044C710.375 498.508 710.731 499.08 710.987 499.76C711.251 500.44 711.383 501.216 711.383 502.088C711.383 502.448 711.343 502.692 711.263 502.82C711.183 502.94 711.035 503 710.819 503H702.827C702.851 503.728 702.955 504.364 703.139 504.908C703.323 505.444 703.575 505.892 703.895 506.252C704.223 506.612 704.611 506.88 705.059 507.056C705.507 507.232 706.007 507.32 706.559 507.32C707.079 507.32 707.527 507.26 707.903 507.14C708.287 507.02 708.615 506.892 708.887 506.756C709.167 506.612 709.399 506.48 709.583 506.36C709.775 506.24 709.943 506.18 710.087 506.18C710.279 506.18 710.427 506.252 710.531 506.396L711.203 507.26ZM721.974 501.548C721.974 501.084 721.906 500.656 721.77 500.264C721.642 499.872 721.45 499.532 721.194 499.244C720.938 498.956 720.626 498.732 720.258 498.572C719.89 498.412 719.466 498.332 718.986 498.332C718.002 498.332 717.226 498.616 716.658 499.184C716.098 499.752 715.742 500.54 715.59 501.548H721.974ZM723.906 507.26C723.618 507.596 723.286 507.888 722.91 508.136C722.534 508.376 722.134 508.572 721.71 508.724C721.286 508.876 720.846 508.988 720.39 509.06C719.942 509.132 719.498 509.168 719.058 509.168C718.218 509.168 717.438 509.028 716.718 508.748C716.006 508.46 715.386 508.044 714.858 507.5C714.338 506.948 713.93 506.268 713.634 505.46C713.346 504.644 713.202 503.708 713.202 502.652C713.202 501.804 713.334 501.016 713.598 500.288C713.862 499.552 714.238 498.912 714.726 498.368C715.222 497.824 715.826 497.396 716.538 497.084C717.25 496.772 718.05 496.616 718.938 496.616C719.682 496.616 720.366 496.74 720.99 496.988C721.622 497.228 722.166 497.58 722.622 498.044C723.078 498.508 723.434 499.08 723.69 499.76C723.954 500.44 724.086 501.216 724.086 502.088C724.086 502.448 724.046 502.692 723.966 502.82C723.886 502.94 723.738 503 723.522 503H715.53C715.554 503.728 715.658 504.364 715.842 504.908C716.026 505.444 716.278 505.892 716.598 506.252C716.926 506.612 717.314 506.88 717.762 507.056C718.21 507.232 718.71 507.32 719.262 507.32C719.782 507.32 720.23 507.26 720.606 507.14C720.99 507.02 721.318 506.892 721.59 506.756C721.87 506.612 722.102 506.48 722.286 506.36C722.478 506.24 722.646 506.18 722.79 506.18C722.982 506.18 723.13 506.252 723.234 506.396L723.906 507.26ZM728.797 498.5C729.061 498.22 729.337 497.964 729.625 497.732C729.913 497.5 730.217 497.304 730.537 497.144C730.865 496.976 731.213 496.848 731.581 496.76C731.957 496.664 732.357 496.616 732.781 496.616C733.453 496.616 734.041 496.728 734.545 496.952C735.057 497.176 735.485 497.492 735.829 497.9C736.173 498.3 736.433 498.784 736.609 499.352C736.785 499.92 736.873 500.548 736.873 501.236V509H734.521V501.236C734.521 500.364 734.321 499.688 733.921 499.208C733.521 498.72 732.909 498.476 732.085 498.476C731.485 498.476 730.921 498.62 730.393 498.908C729.873 499.188 729.389 499.572 728.941 500.06V509H726.601V496.808H728.005C728.333 496.808 728.537 496.964 728.617 497.276L728.797 498.5ZM753.289 498.908C753.225 499.012 753.157 499.088 753.085 499.136C753.013 499.176 752.921 499.196 752.809 499.196C752.681 499.196 752.537 499.152 752.377 499.064C752.225 498.976 752.037 498.88 751.813 498.776C751.597 498.672 751.341 498.576 751.045 498.488C750.749 498.4 750.397 498.356 749.989 498.356C749.653 498.356 749.345 498.4 749.065 498.488C748.793 498.568 748.561 498.684 748.369 498.836C748.177 498.98 748.029 499.156 747.925 499.364C747.821 499.564 747.769 499.78 747.769 500.012C747.769 500.316 747.857 500.568 748.033 500.768C748.217 500.968 748.453 501.14 748.741 501.284C749.037 501.428 749.369 501.56 749.737 501.68C750.113 501.792 750.493 501.912 750.877 502.04C751.269 502.168 751.649 502.316 752.017 502.484C752.393 502.644 752.725 502.848 753.013 503.096C753.309 503.336 753.545 503.628 753.721 503.972C753.905 504.316 753.997 504.736 753.997 505.232C753.997 505.8 753.893 506.328 753.685 506.816C753.485 507.296 753.185 507.712 752.785 508.064C752.393 508.416 751.905 508.692 751.321 508.892C750.737 509.092 750.069 509.192 749.317 509.192C748.477 509.192 747.701 509.052 746.989 508.772C746.277 508.492 745.681 508.136 745.201 507.704L745.753 506.804C745.817 506.692 745.897 506.608 745.993 506.552C746.089 506.488 746.217 506.456 746.377 506.456C746.529 506.456 746.685 506.512 746.845 506.624C747.005 506.736 747.197 506.86 747.421 506.996C747.645 507.124 747.917 507.244 748.237 507.356C748.557 507.46 748.957 507.512 749.437 507.512C749.837 507.512 750.185 507.464 750.481 507.368C750.777 507.264 751.021 507.128 751.213 506.96C751.413 506.784 751.561 506.584 751.657 506.36C751.753 506.136 751.801 505.9 751.801 505.652C751.801 505.332 751.709 505.068 751.525 504.86C751.349 504.644 751.113 504.46 750.817 504.308C750.529 504.156 750.197 504.024 749.821 503.912C749.445 503.8 749.061 503.68 748.669 503.552C748.277 503.424 747.893 503.276 747.517 503.108C747.141 502.94 746.805 502.728 746.509 502.472C746.221 502.216 745.985 501.904 745.801 501.536C745.625 501.168 745.537 500.72 745.537 500.192C745.537 499.72 745.633 499.268 745.825 498.836C746.025 498.404 746.309 498.024 746.677 497.696C747.053 497.368 747.513 497.108 748.057 496.916C748.609 496.716 749.237 496.616 749.941 496.616C750.749 496.616 751.477 496.744 752.125 497C752.781 497.256 753.341 497.608 753.805 498.056L753.289 498.908ZM766.671 496.808V509H765.267C764.947 509 764.739 508.844 764.643 508.532L764.475 507.308C764.211 507.588 763.935 507.844 763.647 508.076C763.359 508.308 763.051 508.508 762.723 508.676C762.395 508.836 762.047 508.96 761.679 509.048C761.311 509.144 760.915 509.192 760.491 509.192C759.819 509.192 759.227 509.08 758.715 508.856C758.211 508.632 757.787 508.32 757.443 507.92C757.099 507.512 756.839 507.024 756.663 506.456C756.487 505.888 756.399 505.26 756.399 504.572V496.808H758.751V504.572C758.751 505.444 758.951 506.124 759.351 506.612C759.751 507.092 760.363 507.332 761.187 507.332C761.787 507.332 762.347 507.192 762.867 506.912C763.387 506.624 763.875 506.232 764.331 505.736V496.808H766.671ZM778.481 499.088C778.409 499.176 778.337 499.248 778.265 499.304C778.201 499.352 778.105 499.376 777.977 499.376C777.849 499.376 777.713 499.328 777.569 499.232C777.433 499.128 777.257 499.02 777.041 498.908C776.833 498.788 776.577 498.68 776.273 498.584C775.977 498.48 775.609 498.428 775.169 498.428C774.593 498.428 774.085 498.532 773.645 498.74C773.205 498.948 772.837 499.244 772.541 499.628C772.253 500.012 772.033 500.48 771.881 501.032C771.729 501.584 771.653 502.204 771.653 502.892C771.653 503.604 771.733 504.24 771.893 504.8C772.053 505.352 772.281 505.82 772.577 506.204C772.873 506.58 773.233 506.868 773.657 507.068C774.081 507.26 774.553 507.356 775.073 507.356C775.577 507.356 775.993 507.296 776.321 507.176C776.649 507.048 776.921 506.912 777.137 506.768C777.353 506.624 777.533 506.492 777.677 506.372C777.821 506.244 777.969 506.18 778.121 506.18C778.313 506.18 778.461 506.252 778.565 506.396L779.237 507.26C778.957 507.604 778.641 507.896 778.289 508.136C777.945 508.376 777.577 508.572 777.185 508.724C776.793 508.876 776.381 508.988 775.949 509.06C775.525 509.132 775.093 509.168 774.653 509.168C773.893 509.168 773.181 509.028 772.517 508.748C771.861 508.468 771.289 508.06 770.801 507.524C770.321 506.988 769.941 506.332 769.661 505.556C769.381 504.772 769.241 503.884 769.241 502.892C769.241 501.988 769.365 501.152 769.613 500.384C769.869 499.616 770.241 498.956 770.729 498.404C771.225 497.844 771.833 497.408 772.553 497.096C773.273 496.776 774.097 496.616 775.025 496.616C775.897 496.616 776.665 496.756 777.329 497.036C777.993 497.316 778.585 497.712 779.105 498.224L778.481 499.088ZM789.754 499.088C789.682 499.176 789.61 499.248 789.538 499.304C789.474 499.352 789.378 499.376 789.25 499.376C789.122 499.376 788.986 499.328 788.842 499.232C788.706 499.128 788.53 499.02 788.314 498.908C788.106 498.788 787.85 498.68 787.546 498.584C787.25 498.48 786.882 498.428 786.442 498.428C785.866 498.428 785.358 498.532 784.918 498.74C784.478 498.948 784.11 499.244 783.814 499.628C783.526 500.012 783.306 500.48 783.154 501.032C783.002 501.584 782.926 502.204 782.926 502.892C782.926 503.604 783.006 504.24 783.166 504.8C783.326 505.352 783.554 505.82 783.85 506.204C784.146 506.58 784.506 506.868 784.93 507.068C785.354 507.26 785.826 507.356 786.346 507.356C786.85 507.356 787.266 507.296 787.594 507.176C787.922 507.048 788.194 506.912 788.41 506.768C788.626 506.624 788.806 506.492 788.95 506.372C789.094 506.244 789.242 506.18 789.394 506.18C789.586 506.18 789.734 506.252 789.838 506.396L790.51 507.26C790.23 507.604 789.914 507.896 789.562 508.136C789.218 508.376 788.85 508.572 788.458 508.724C788.066 508.876 787.654 508.988 787.222 509.06C786.798 509.132 786.366 509.168 785.926 509.168C785.166 509.168 784.454 509.028 783.79 508.748C783.134 508.468 782.562 508.06 782.074 507.524C781.594 506.988 781.214 506.332 780.934 505.556C780.654 504.772 780.514 503.884 780.514 502.892C780.514 501.988 780.638 501.152 780.886 500.384C781.142 499.616 781.514 498.956 782.002 498.404C782.498 497.844 783.106 497.408 783.826 497.096C784.546 496.776 785.37 496.616 786.298 496.616C787.17 496.616 787.938 496.756 788.602 497.036C789.266 497.316 789.858 497.712 790.378 498.224L789.754 499.088ZM800.56 501.548C800.56 501.084 800.492 500.656 800.356 500.264C800.228 499.872 800.036 499.532 799.78 499.244C799.524 498.956 799.212 498.732 798.844 498.572C798.476 498.412 798.052 498.332 797.572 498.332C796.588 498.332 795.812 498.616 795.244 499.184C794.684 499.752 794.328 500.54 794.176 501.548H800.56ZM802.492 507.26C802.204 507.596 801.872 507.888 801.496 508.136C801.12 508.376 800.72 508.572 800.296 508.724C799.872 508.876 799.432 508.988 798.976 509.06C798.528 509.132 798.084 509.168 797.644 509.168C796.804 509.168 796.024 509.028 795.304 508.748C794.592 508.46 793.972 508.044 793.444 507.5C792.924 506.948 792.516 506.268 792.22 505.46C791.932 504.644 791.788 503.708 791.788 502.652C791.788 501.804 791.92 501.016 792.184 500.288C792.448 499.552 792.824 498.912 793.312 498.368C793.808 497.824 794.412 497.396 795.124 497.084C795.836 496.772 796.636 496.616 797.524 496.616C798.268 496.616 798.952 496.74 799.576 496.988C800.208 497.228 800.752 497.58 801.208 498.044C801.664 498.508 802.02 499.08 802.276 499.76C802.54 500.44 802.672 501.216 802.672 502.088C802.672 502.448 802.632 502.692 802.552 502.82C802.472 502.94 802.324 503 802.108 503H794.116C794.14 503.728 794.244 504.364 794.428 504.908C794.612 505.444 794.864 505.892 795.184 506.252C795.512 506.612 795.9 506.88 796.348 507.056C796.796 507.232 797.296 507.32 797.848 507.32C798.368 507.32 798.816 507.26 799.192 507.14C799.576 507.02 799.904 506.892 800.176 506.756C800.456 506.612 800.688 506.48 800.872 506.36C801.064 506.24 801.232 506.18 801.376 506.18C801.568 506.18 801.716 506.252 801.82 506.396L802.492 507.26ZM812.375 498.908C812.311 499.012 812.243 499.088 812.171 499.136C812.099 499.176 812.007 499.196 811.895 499.196C811.767 499.196 811.623 499.152 811.463 499.064C811.311 498.976 811.123 498.88 810.899 498.776C810.683 498.672 810.427 498.576 810.131 498.488C809.835 498.4 809.483 498.356 809.075 498.356C808.739 498.356 808.431 498.4 808.151 498.488C807.879 498.568 807.647 498.684 807.455 498.836C807.263 498.98 807.115 499.156 807.011 499.364C806.907 499.564 806.855 499.78 806.855 500.012C806.855 500.316 806.943 500.568 807.119 500.768C807.303 500.968 807.539 501.14 807.827 501.284C808.123 501.428 808.455 501.56 808.823 501.68C809.199 501.792 809.579 501.912 809.963 502.04C810.355 502.168 810.735 502.316 811.103 502.484C811.479 502.644 811.811 502.848 812.099 503.096C812.395 503.336 812.631 503.628 812.807 503.972C812.991 504.316 813.083 504.736 813.083 505.232C813.083 505.8 812.979 506.328 812.771 506.816C812.571 507.296 812.271 507.712 811.871 508.064C811.479 508.416 810.991 508.692 810.407 508.892C809.823 509.092 809.155 509.192 808.403 509.192C807.563 509.192 806.787 509.052 806.075 508.772C805.363 508.492 804.767 508.136 804.287 507.704L804.839 506.804C804.903 506.692 804.983 506.608 805.079 506.552C805.175 506.488 805.303 506.456 805.463 506.456C805.615 506.456 805.771 506.512 805.931 506.624C806.091 506.736 806.283 506.86 806.507 506.996C806.731 507.124 807.003 507.244 807.323 507.356C807.643 507.46 808.043 507.512 808.523 507.512C808.923 507.512 809.271 507.464 809.567 507.368C809.863 507.264 810.107 507.128 810.299 506.96C810.499 506.784 810.647 506.584 810.743 506.36C810.839 506.136 810.887 505.9 810.887 505.652C810.887 505.332 810.795 505.068 810.611 504.86C810.435 504.644 810.199 504.46 809.903 504.308C809.615 504.156 809.283 504.024 808.907 503.912C808.531 503.8 808.147 503.68 807.755 503.552C807.363 503.424 806.979 503.276 806.603 503.108C806.227 502.94 805.891 502.728 805.595 502.472C805.307 502.216 805.071 501.904 804.887 501.536C804.711 501.168 804.623 500.72 804.623 500.192C804.623 499.72 804.719 499.268 804.911 498.836C805.111 498.404 805.395 498.024 805.763 497.696C806.139 497.368 806.599 497.108 807.143 496.916C807.695 496.716 808.323 496.616 809.027 496.616C809.835 496.616 810.563 496.744 811.211 497C811.867 497.256 812.427 497.608 812.891 498.056L812.375 498.908ZM822.805 498.908C822.741 499.012 822.673 499.088 822.601 499.136C822.529 499.176 822.437 499.196 822.325 499.196C822.197 499.196 822.053 499.152 821.893 499.064C821.741 498.976 821.553 498.88 821.329 498.776C821.113 498.672 820.857 498.576 820.561 498.488C820.265 498.4 819.913 498.356 819.505 498.356C819.169 498.356 818.861 498.4 818.581 498.488C818.309 498.568 818.077 498.684 817.885 498.836C817.693 498.98 817.545 499.156 817.441 499.364C817.337 499.564 817.285 499.78 817.285 500.012C817.285 500.316 817.373 500.568 817.549 500.768C817.733 500.968 817.969 501.14 818.257 501.284C818.553 501.428 818.885 501.56 819.253 501.68C819.629 501.792 820.009 501.912 820.393 502.04C820.785 502.168 821.165 502.316 821.533 502.484C821.909 502.644 822.241 502.848 822.529 503.096C822.825 503.336 823.061 503.628 823.237 503.972C823.421 504.316 823.513 504.736 823.513 505.232C823.513 505.8 823.409 506.328 823.201 506.816C823.001 507.296 822.701 507.712 822.301 508.064C821.909 508.416 821.421 508.692 820.837 508.892C820.253 509.092 819.585 509.192 818.833 509.192C817.993 509.192 817.217 509.052 816.505 508.772C815.793 508.492 815.197 508.136 814.717 507.704L815.269 506.804C815.333 506.692 815.413 506.608 815.509 506.552C815.605 506.488 815.733 506.456 815.893 506.456C816.045 506.456 816.201 506.512 816.361 506.624C816.521 506.736 816.713 506.86 816.937 506.996C817.161 507.124 817.433 507.244 817.753 507.356C818.073 507.46 818.473 507.512 818.953 507.512C819.353 507.512 819.701 507.464 819.997 507.368C820.293 507.264 820.537 507.128 820.729 506.96C820.929 506.784 821.077 506.584 821.173 506.36C821.269 506.136 821.317 505.9 821.317 505.652C821.317 505.332 821.225 505.068 821.041 504.86C820.865 504.644 820.629 504.46 820.333 504.308C820.045 504.156 819.713 504.024 819.337 503.912C818.961 503.8 818.577 503.68 818.185 503.552C817.793 503.424 817.409 503.276 817.033 503.108C816.657 502.94 816.321 502.728 816.025 502.472C815.737 502.216 815.501 501.904 815.317 501.536C815.141 501.168 815.053 500.72 815.053 500.192C815.053 499.72 815.149 499.268 815.341 498.836C815.541 498.404 815.825 498.024 816.193 497.696C816.569 497.368 817.029 497.108 817.573 496.916C818.125 496.716 818.753 496.616 819.457 496.616C820.265 496.616 820.993 496.744 821.641 497C822.297 497.256 822.857 497.608 823.321 498.056L822.805 498.908ZM826.85 509V498.728L825.578 498.572C825.394 498.532 825.242 498.468 825.122 498.38C825.01 498.284 824.954 498.148 824.954 497.972V497H826.85V495.896C826.85 495.2 826.95 494.58 827.15 494.036C827.35 493.492 827.634 493.032 828.002 492.656C828.378 492.272 828.826 491.984 829.346 491.792C829.874 491.592 830.466 491.492 831.122 491.492C831.674 491.492 832.182 491.572 832.646 491.732L832.598 492.908C832.59 493.012 832.558 493.092 832.502 493.148C832.446 493.196 832.37 493.232 832.274 493.256C832.186 493.28 832.074 493.296 831.938 493.304C831.81 493.304 831.67 493.304 831.518 493.304C831.158 493.304 830.83 493.348 830.534 493.436C830.238 493.524 829.986 493.672 829.778 493.88C829.57 494.088 829.41 494.364 829.298 494.708C829.186 495.044 829.13 495.464 829.13 495.968V497H832.55V498.704H829.202V509H826.85ZM844.647 496.808V509H843.243C842.923 509 842.715 508.844 842.619 508.532L842.451 507.308C842.187 507.588 841.911 507.844 841.623 508.076C841.335 508.308 841.027 508.508 840.699 508.676C840.371 508.836 840.023 508.96 839.655 509.048C839.287 509.144 838.891 509.192 838.467 509.192C837.795 509.192 837.203 509.08 836.691 508.856C836.187 508.632 835.763 508.32 835.419 507.92C835.075 507.512 834.815 507.024 834.639 506.456C834.463 505.888 834.375 505.26 834.375 504.572V496.808H836.727V504.572C836.727 505.444 836.927 506.124 837.327 506.612C837.727 507.092 838.339 507.332 839.163 507.332C839.763 507.332 840.323 507.192 840.843 506.912C841.363 506.624 841.851 506.232 842.307 505.736V496.808H844.647ZM850.314 491.288V509H847.962V491.288H850.314ZM856.056 491.288V509H853.704V491.288H856.056ZM870.054 496.808L863.286 512.54C863.214 512.716 863.118 512.852 862.998 512.948C862.878 513.044 862.702 513.092 862.47 513.092H860.73L862.962 508.232L857.958 496.808H859.998C860.198 496.808 860.354 496.856 860.466 496.952C860.578 497.048 860.658 497.156 860.706 497.276L863.802 504.596C863.866 504.78 863.926 504.968 863.982 505.16C864.046 505.344 864.098 505.528 864.138 505.712C864.194 505.52 864.254 505.332 864.318 505.148C864.382 504.956 864.45 504.768 864.522 504.584L867.51 497.276C867.566 497.14 867.654 497.028 867.774 496.94C867.894 496.852 868.03 496.808 868.182 496.808H870.054ZM885.872 499.088C885.8 499.176 885.728 499.248 885.656 499.304C885.592 499.352 885.496 499.376 885.368 499.376C885.24 499.376 885.104 499.328 884.96 499.232C884.824 499.128 884.648 499.02 884.432 498.908C884.224 498.788 883.968 498.68 883.664 498.584C883.368 498.48 883 498.428 882.56 498.428C881.984 498.428 881.476 498.532 881.036 498.74C880.596 498.948 880.228 499.244 879.932 499.628C879.644 500.012 879.424 500.48 879.272 501.032C879.12 501.584 879.044 502.204 879.044 502.892C879.044 503.604 879.124 504.24 879.284 504.8C879.444 505.352 879.672 505.82 879.968 506.204C880.264 506.58 880.624 506.868 881.048 507.068C881.472 507.26 881.944 507.356 882.464 507.356C882.968 507.356 883.384 507.296 883.712 507.176C884.04 507.048 884.312 506.912 884.528 506.768C884.744 506.624 884.924 506.492 885.068 506.372C885.212 506.244 885.36 506.18 885.512 506.18C885.704 506.18 885.852 506.252 885.956 506.396L886.628 507.26C886.348 507.604 886.032 507.896 885.68 508.136C885.336 508.376 884.968 508.572 884.576 508.724C884.184 508.876 883.772 508.988 883.34 509.06C882.916 509.132 882.484 509.168 882.044 509.168C881.284 509.168 880.572 509.028 879.908 508.748C879.252 508.468 878.68 508.06 878.192 507.524C877.712 506.988 877.332 506.332 877.052 505.556C876.772 504.772 876.632 503.884 876.632 502.892C876.632 501.988 876.756 501.152 877.004 500.384C877.26 499.616 877.632 498.956 878.12 498.404C878.616 497.844 879.224 497.408 879.944 497.096C880.664 496.776 881.488 496.616 882.416 496.616C883.288 496.616 884.056 496.756 884.72 497.036C885.384 497.316 885.976 497.712 886.496 498.224L885.872 499.088ZM891.02 499.148C891.412 498.348 891.884 497.72 892.436 497.264C892.988 496.808 893.652 496.58 894.428 496.58C894.692 496.58 894.94 496.612 895.172 496.676C895.412 496.732 895.62 496.82 895.796 496.94L895.64 498.704C895.584 498.92 895.452 499.028 895.244 499.028C895.132 499.028 894.964 499.008 894.74 498.968C894.516 498.92 894.276 498.896 894.02 498.896C893.644 498.896 893.312 498.952 893.024 499.064C892.736 499.168 892.476 499.328 892.244 499.544C892.02 499.752 891.82 500.012 891.644 500.324C891.468 500.628 891.304 500.976 891.152 501.368V509H888.812V496.808H890.156C890.412 496.808 890.584 496.856 890.672 496.952C890.768 497.04 890.836 497.2 890.876 497.432L891.02 499.148ZM905.232 501.548C905.232 501.084 905.164 500.656 905.028 500.264C904.9 499.872 904.708 499.532 904.452 499.244C904.196 498.956 903.884 498.732 903.516 498.572C903.148 498.412 902.724 498.332 902.244 498.332C901.26 498.332 900.484 498.616 899.916 499.184C899.356 499.752 899 500.54 898.848 501.548H905.232ZM907.164 507.26C906.876 507.596 906.544 507.888 906.168 508.136C905.792 508.376 905.392 508.572 904.968 508.724C904.544 508.876 904.104 508.988 903.648 509.06C903.2 509.132 902.756 509.168 902.316 509.168C901.476 509.168 900.696 509.028 899.976 508.748C899.264 508.46 898.644 508.044 898.116 507.5C897.596 506.948 897.188 506.268 896.892 505.46C896.604 504.644 896.46 503.708 896.46 502.652C896.46 501.804 896.592 501.016 896.856 500.288C897.12 499.552 897.496 498.912 897.984 498.368C898.48 497.824 899.084 497.396 899.796 497.084C900.508 496.772 901.308 496.616 902.196 496.616C902.94 496.616 903.624 496.74 904.248 496.988C904.88 497.228 905.424 497.58 905.88 498.044C906.336 498.508 906.692 499.08 906.948 499.76C907.212 500.44 907.344 501.216 907.344 502.088C907.344 502.448 907.304 502.692 907.224 502.82C907.144 502.94 906.996 503 906.78 503H898.788C898.812 503.728 898.916 504.364 899.1 504.908C899.284 505.444 899.536 505.892 899.856 506.252C900.184 506.612 900.572 506.88 901.02 507.056C901.468 507.232 901.968 507.32 902.52 507.32C903.04 507.32 903.488 507.26 903.864 507.14C904.248 507.02 904.576 506.892 904.848 506.756C905.128 506.612 905.36 506.48 905.544 506.36C905.736 506.24 905.904 506.18 906.048 506.18C906.24 506.18 906.388 506.252 906.492 506.396L907.164 507.26ZM916.411 503.588C915.459 503.62 914.651 503.696 913.987 503.816C913.323 503.928 912.783 504.08 912.367 504.272C911.951 504.464 911.651 504.692 911.467 504.956C911.283 505.212 911.191 505.5 911.191 505.82C911.191 506.124 911.239 506.388 911.335 506.612C911.439 506.828 911.575 507.008 911.743 507.152C911.919 507.288 912.123 507.388 912.355 507.452C912.587 507.516 912.839 507.548 913.111 507.548C913.471 507.548 913.799 507.512 914.095 507.44C914.399 507.368 914.683 507.268 914.947 507.14C915.211 507.004 915.463 506.84 915.703 506.648C915.943 506.456 916.179 506.236 916.411 505.988V503.588ZM909.547 498.512C910.227 497.864 910.963 497.38 911.755 497.06C912.555 496.74 913.431 496.58 914.383 496.58C915.079 496.58 915.695 496.696 916.231 496.928C916.767 497.152 917.219 497.468 917.587 497.876C917.955 498.284 918.231 498.772 918.415 499.34C918.607 499.908 918.703 500.536 918.703 501.224V509H917.659C917.427 509 917.251 508.964 917.131 508.892C917.011 508.812 916.915 508.668 916.843 508.46L916.591 507.392C916.279 507.68 915.971 507.936 915.667 508.16C915.363 508.376 915.043 508.564 914.707 508.724C914.379 508.876 914.027 508.992 913.651 509.072C913.275 509.152 912.859 509.192 912.403 509.192C911.923 509.192 911.471 509.128 911.047 509C910.631 508.864 910.267 508.66 909.955 508.388C909.643 508.116 909.395 507.776 909.211 507.368C909.035 506.96 908.947 506.484 908.947 505.94C908.947 505.46 909.075 505 909.331 504.56C909.595 504.112 910.019 503.712 910.603 503.36C911.195 503.008 911.963 502.72 912.907 502.496C913.859 502.272 915.027 502.144 916.411 502.112V501.224C916.411 500.304 916.215 499.616 915.823 499.16C915.431 498.704 914.855 498.476 914.095 498.476C913.583 498.476 913.151 498.54 912.799 498.668C912.455 498.796 912.155 498.94 911.899 499.1C911.651 499.252 911.431 499.392 911.239 499.52C911.055 499.648 910.863 499.712 910.663 499.712C910.503 499.712 910.363 499.668 910.243 499.58C910.131 499.492 910.039 499.388 909.967 499.268L909.547 498.512ZM925.487 509.192C924.503 509.192 923.743 508.916 923.207 508.364C922.679 507.812 922.415 507.024 922.415 506V498.704H920.999C920.863 498.704 920.747 498.664 920.651 498.584C920.563 498.496 920.519 498.368 920.519 498.2V497.252L922.499 496.976L923.027 493.34C923.059 493.204 923.119 493.1 923.207 493.028C923.303 492.948 923.423 492.908 923.567 492.908H924.755V497H928.211V498.704H924.755V505.844C924.755 506.324 924.871 506.684 925.103 506.924C925.343 507.156 925.647 507.272 926.015 507.272C926.231 507.272 926.415 507.244 926.567 507.188C926.727 507.132 926.863 507.072 926.975 507.008C927.087 506.936 927.183 506.872 927.263 506.816C927.343 506.76 927.415 506.732 927.479 506.732C927.559 506.732 927.619 506.752 927.659 506.792C927.707 506.824 927.755 506.88 927.803 506.96L928.499 508.088C928.115 508.44 927.659 508.712 927.131 508.904C926.603 509.096 926.055 509.192 925.487 509.192ZM938.372 501.548C938.372 501.084 938.304 500.656 938.168 500.264C938.04 499.872 937.848 499.532 937.592 499.244C937.336 498.956 937.024 498.732 936.656 498.572C936.288 498.412 935.864 498.332 935.384 498.332C934.4 498.332 933.624 498.616 933.056 499.184C932.496 499.752 932.14 500.54 931.988 501.548H938.372ZM940.304 507.26C940.016 507.596 939.684 507.888 939.308 508.136C938.932 508.376 938.532 508.572 938.108 508.724C937.684 508.876 937.244 508.988 936.788 509.06C936.34 509.132 935.896 509.168 935.456 509.168C934.616 509.168 933.836 509.028 933.116 508.748C932.404 508.46 931.784 508.044 931.256 507.5C930.736 506.948 930.328 506.268 930.032 505.46C929.744 504.644 929.6 503.708 929.6 502.652C929.6 501.804 929.732 501.016 929.996 500.288C930.26 499.552 930.636 498.912 931.124 498.368C931.62 497.824 932.224 497.396 932.936 497.084C933.648 496.772 934.448 496.616 935.336 496.616C936.08 496.616 936.764 496.74 937.388 496.988C938.02 497.228 938.564 497.58 939.02 498.044C939.476 498.508 939.832 499.08 940.088 499.76C940.352 500.44 940.484 501.216 940.484 502.088C940.484 502.448 940.444 502.692 940.364 502.82C940.284 502.94 940.136 503 939.92 503H931.928C931.952 503.728 932.056 504.364 932.24 504.908C932.424 505.444 932.676 505.892 932.996 506.252C933.324 506.612 933.712 506.88 934.16 507.056C934.608 507.232 935.108 507.32 935.66 507.32C936.18 507.32 936.628 507.26 937.004 507.14C937.388 507.02 937.716 506.892 937.988 506.756C938.268 506.612 938.5 506.48 938.684 506.36C938.876 506.24 939.044 506.18 939.188 506.18C939.38 506.18 939.528 506.252 939.632 506.396L940.304 507.26ZM950.859 499.76C950.475 499.256 950.059 498.904 949.611 498.704C949.171 498.504 948.675 498.404 948.123 498.404C947.051 498.404 946.219 498.792 945.627 499.568C945.043 500.336 944.751 501.46 944.751 502.94C944.751 503.716 944.815 504.38 944.943 504.932C945.079 505.476 945.271 505.924 945.519 506.276C945.775 506.62 946.087 506.876 946.455 507.044C946.823 507.204 947.239 507.284 947.703 507.284C948.383 507.284 948.971 507.132 949.467 506.828C949.963 506.524 950.427 506.096 950.859 505.544V499.76ZM953.211 491.288V509H951.795C951.467 509 951.263 508.844 951.183 508.532L950.979 507.128C950.459 507.744 949.867 508.24 949.203 508.616C948.547 508.984 947.787 509.168 946.923 509.168C946.227 509.168 945.595 509.032 945.027 508.76C944.467 508.488 943.987 508.092 943.587 507.572C943.187 507.044 942.879 506.392 942.663 505.616C942.447 504.84 942.339 503.948 942.339 502.94C942.339 502.036 942.459 501.196 942.699 500.42C942.939 499.644 943.287 498.972 943.743 498.404C944.199 497.836 944.751 497.392 945.399 497.072C946.047 496.744 946.779 496.58 947.595 496.58C948.331 496.58 948.955 496.7 949.467 496.94C949.987 497.18 950.451 497.52 950.859 497.96V491.288H953.211ZM684.825 540.088C684.753 540.176 684.681 540.248 684.609 540.304C684.545 540.352 684.449 540.376 684.321 540.376C684.193 540.376 684.057 540.328 683.913 540.232C683.777 540.128 683.601 540.02 683.385 539.908C683.177 539.788 682.921 539.68 682.617 539.584C682.321 539.48 681.953 539.428 681.513 539.428C680.937 539.428 680.429 539.532 679.989 539.74C679.549 539.948 679.181 540.244 678.885 540.628C678.597 541.012 678.377 541.48 678.225 542.032C678.073 542.584 677.997 543.204 677.997 543.892C677.997 544.604 678.077 545.24 678.237 545.8C678.397 546.352 678.625 546.82 678.921 547.204C679.217 547.58 679.577 547.868 680.001 548.068C680.425 548.26 680.897 548.356 681.417 548.356C681.921 548.356 682.337 548.296 682.665 548.176C682.993 548.048 683.265 547.912 683.481 547.768C683.697 547.624 683.877 547.492 684.021 547.372C684.165 547.244 684.313 547.18 684.465 547.18C684.657 547.18 684.805 547.252 684.909 547.396L685.581 548.26C685.301 548.604 684.985 548.896 684.633 549.136C684.289 549.376 683.921 549.572 683.529 549.724C683.137 549.876 682.725 549.988 682.293 550.06C681.869 550.132 681.437 550.168 680.997 550.168C680.237 550.168 679.525 550.028 678.861 549.748C678.205 549.468 677.633 549.06 677.145 548.524C676.665 547.988 676.285 547.332 676.005 546.556C675.725 545.772 675.585 544.884 675.585 543.892C675.585 542.988 675.709 542.152 675.957 541.384C676.213 540.616 676.585 539.956 677.073 539.404C677.569 538.844 678.177 538.408 678.897 538.096C679.617 537.776 680.441 537.616 681.369 537.616C682.241 537.616 683.009 537.756 683.673 538.036C684.337 538.316 684.929 538.712 685.449 539.224L684.825 540.088ZM690.165 532.288V550H687.813V532.288H690.165ZM695.955 537.808V550H693.615V537.808H695.955ZM696.399 534.04C696.399 534.256 696.355 534.464 696.267 534.664C696.179 534.856 696.059 535.028 695.907 535.18C695.763 535.324 695.591 535.44 695.391 535.528C695.191 535.608 694.983 535.648 694.767 535.648C694.551 535.648 694.347 535.608 694.155 535.528C693.963 535.44 693.791 535.324 693.639 535.18C693.495 535.028 693.379 534.856 693.291 534.664C693.211 534.464 693.171 534.256 693.171 534.04C693.171 533.816 693.211 533.608 693.291 533.416C693.379 533.216 693.495 533.044 693.639 532.9C693.791 532.748 693.963 532.632 694.155 532.552C694.347 532.464 694.551 532.42 694.767 532.42C694.983 532.42 695.191 532.464 695.391 532.552C695.591 532.632 695.763 532.748 695.907 532.9C696.059 533.044 696.179 533.216 696.267 533.416C696.355 533.608 696.399 533.816 696.399 534.04ZM707.887 540.088C707.815 540.176 707.743 540.248 707.671 540.304C707.607 540.352 707.511 540.376 707.383 540.376C707.255 540.376 707.119 540.328 706.975 540.232C706.839 540.128 706.663 540.02 706.447 539.908C706.239 539.788 705.983 539.68 705.679 539.584C705.383 539.48 705.015 539.428 704.575 539.428C703.999 539.428 703.491 539.532 703.051 539.74C702.611 539.948 702.243 540.244 701.947 540.628C701.659 541.012 701.439 541.48 701.287 542.032C701.135 542.584 701.059 543.204 701.059 543.892C701.059 544.604 701.139 545.24 701.299 545.8C701.459 546.352 701.687 546.82 701.983 547.204C702.279 547.58 702.639 547.868 703.063 548.068C703.487 548.26 703.959 548.356 704.479 548.356C704.983 548.356 705.399 548.296 705.727 548.176C706.055 548.048 706.327 547.912 706.543 547.768C706.759 547.624 706.939 547.492 707.083 547.372C707.227 547.244 707.375 547.18 707.527 547.18C707.719 547.18 707.867 547.252 707.971 547.396L708.643 548.26C708.363 548.604 708.047 548.896 707.695 549.136C707.351 549.376 706.983 549.572 706.591 549.724C706.199 549.876 705.787 549.988 705.355 550.06C704.931 550.132 704.499 550.168 704.059 550.168C703.299 550.168 702.587 550.028 701.923 549.748C701.267 549.468 700.695 549.06 700.207 548.524C699.727 547.988 699.347 547.332 699.067 546.556C698.787 545.772 698.647 544.884 698.647 543.892C698.647 542.988 698.771 542.152 699.019 541.384C699.275 540.616 699.647 539.956 700.135 539.404C700.631 538.844 701.239 538.408 701.959 538.096C702.679 537.776 703.503 537.616 704.431 537.616C705.303 537.616 706.071 537.756 706.735 538.036C707.399 538.316 707.991 538.712 708.511 539.224L707.887 540.088ZM713.168 532.288V542.644H713.72C713.888 542.644 714.028 542.62 714.14 542.572C714.252 542.524 714.368 542.428 714.488 542.284L718.136 538.264C718.248 538.112 718.372 538 718.508 537.928C718.644 537.848 718.816 537.808 719.024 537.808H721.16L716.852 542.524C716.62 542.82 716.372 543.048 716.108 543.208C716.26 543.312 716.392 543.432 716.504 543.568C716.624 543.704 716.74 543.852 716.852 544.012L721.436 550H719.336C719.144 550 718.976 549.968 718.832 549.904C718.696 549.84 718.572 549.724 718.46 549.556L714.692 544.66C714.572 544.476 714.452 544.36 714.332 544.312C714.212 544.256 714.032 544.228 713.792 544.228H713.168V550H710.828V532.288H713.168ZM735.801 544.588C734.849 544.62 734.041 544.696 733.377 544.816C732.713 544.928 732.173 545.08 731.757 545.272C731.341 545.464 731.041 545.692 730.857 545.956C730.673 546.212 730.581 546.5 730.581 546.82C730.581 547.124 730.629 547.388 730.725 547.612C730.829 547.828 730.965 548.008 731.133 548.152C731.309 548.288 731.513 548.388 731.745 548.452C731.977 548.516 732.229 548.548 732.501 548.548C732.861 548.548 733.189 548.512 733.485 548.44C733.789 548.368 734.073 548.268 734.337 548.14C734.601 548.004 734.853 547.84 735.093 547.648C735.333 547.456 735.569 547.236 735.801 546.988V544.588ZM728.937 539.512C729.617 538.864 730.353 538.38 731.145 538.06C731.945 537.74 732.821 537.58 733.773 537.58C734.469 537.58 735.085 537.696 735.621 537.928C736.157 538.152 736.609 538.468 736.977 538.876C737.345 539.284 737.621 539.772 737.805 540.34C737.997 540.908 738.093 541.536 738.093 542.224V550H737.049C736.817 550 736.641 549.964 736.521 549.892C736.401 549.812 736.305 549.668 736.233 549.46L735.981 548.392C735.669 548.68 735.361 548.936 735.057 549.16C734.753 549.376 734.433 549.564 734.097 549.724C733.769 549.876 733.417 549.992 733.041 550.072C732.665 550.152 732.249 550.192 731.793 550.192C731.313 550.192 730.861 550.128 730.437 550C730.021 549.864 729.657 549.66 729.345 549.388C729.033 549.116 728.785 548.776 728.601 548.368C728.425 547.96 728.337 547.484 728.337 546.94C728.337 546.46 728.465 546 728.721 545.56C728.985 545.112 729.409 544.712 729.993 544.36C730.585 544.008 731.353 543.72 732.297 543.496C733.249 543.272 734.417 543.144 735.801 543.112V542.224C735.801 541.304 735.605 540.616 735.213 540.16C734.821 539.704 734.245 539.476 733.485 539.476C732.973 539.476 732.541 539.54 732.189 539.668C731.845 539.796 731.545 539.94 731.289 540.1C731.041 540.252 730.821 540.392 730.629 540.52C730.445 540.648 730.253 540.712 730.053 540.712C729.893 540.712 729.753 540.668 729.633 540.58C729.521 540.492 729.429 540.388 729.357 540.268L728.937 539.512ZM743.422 539.5C743.686 539.22 743.962 538.964 744.25 538.732C744.538 538.5 744.842 538.304 745.162 538.144C745.49 537.976 745.838 537.848 746.206 537.76C746.582 537.664 746.982 537.616 747.406 537.616C748.078 537.616 748.666 537.728 749.17 537.952C749.682 538.176 750.11 538.492 750.454 538.9C750.798 539.3 751.058 539.784 751.234 540.352C751.41 540.92 751.498 541.548 751.498 542.236V550H749.146V542.236C749.146 541.364 748.946 540.688 748.546 540.208C748.146 539.72 747.534 539.476 746.71 539.476C746.11 539.476 745.546 539.62 745.018 539.908C744.498 540.188 744.014 540.572 743.566 541.06V550H741.226V537.808H742.63C742.958 537.808 743.162 537.964 743.242 538.276L743.422 539.5ZM765.007 537.808L758.239 553.54C758.167 553.716 758.071 553.852 757.951 553.948C757.831 554.044 757.655 554.092 757.423 554.092H755.683L757.915 549.232L752.911 537.808H754.951C755.151 537.808 755.307 537.856 755.419 537.952C755.531 538.048 755.611 538.156 755.659 538.276L758.755 545.596C758.819 545.78 758.879 545.968 758.935 546.16C758.999 546.344 759.051 546.528 759.091 546.712C759.147 546.52 759.207 546.332 759.271 546.148C759.335 545.956 759.403 545.768 759.475 545.584L762.463 538.276C762.519 538.14 762.607 538.028 762.727 537.94C762.847 537.852 762.983 537.808 763.135 537.808H765.007ZM783.752 537.808L779.828 550H777.956C777.732 550 777.58 549.852 777.5 549.556L774.932 541.612C774.868 541.412 774.812 541.216 774.764 541.024C774.716 540.824 774.672 540.624 774.632 540.424C774.56 540.84 774.46 541.244 774.332 541.636L771.728 549.556C771.648 549.852 771.476 550 771.212 550H769.436L765.5 537.808H767.348C767.532 537.808 767.684 537.852 767.804 537.94C767.932 538.028 768.016 538.14 768.056 538.276L770.252 545.764C770.324 546.068 770.388 546.364 770.444 546.652C770.5 546.94 770.552 547.228 770.6 547.516C770.672 547.228 770.748 546.94 770.828 546.652C770.916 546.364 771.004 546.068 771.092 545.764L773.528 538.228C773.568 538.092 773.644 537.984 773.756 537.904C773.868 537.816 774.004 537.772 774.164 537.772H775.184C775.36 537.772 775.504 537.816 775.616 537.904C775.736 537.984 775.816 538.092 775.856 538.228L778.232 545.764C778.32 546.068 778.404 546.368 778.484 546.664C778.564 546.952 778.636 547.244 778.7 547.54C778.748 547.252 778.804 546.964 778.868 546.676C778.932 546.38 779.004 546.076 779.084 545.764L781.316 538.276C781.356 538.14 781.436 538.028 781.556 537.94C781.684 537.852 781.828 537.808 781.988 537.808H783.752ZM788.074 539.356C788.586 538.836 789.15 538.416 789.766 538.096C790.39 537.776 791.106 537.616 791.914 537.616C792.586 537.616 793.174 537.728 793.678 537.952C794.19 538.176 794.618 538.492 794.962 538.9C795.306 539.3 795.566 539.784 795.742 540.352C795.918 540.92 796.006 541.548 796.006 542.236V550H793.654V542.236C793.654 541.364 793.454 540.688 793.054 540.208C792.654 539.72 792.042 539.476 791.218 539.476C790.618 539.476 790.054 539.62 789.526 539.908C789.006 540.188 788.522 540.572 788.074 541.06V550H785.734V532.288H788.074V539.356ZM807.24 542.548C807.24 542.084 807.172 541.656 807.036 541.264C806.908 540.872 806.716 540.532 806.46 540.244C806.204 539.956 805.892 539.732 805.524 539.572C805.156 539.412 804.732 539.332 804.252 539.332C803.268 539.332 802.492 539.616 801.924 540.184C801.364 540.752 801.008 541.54 800.856 542.548H807.24ZM809.172 548.26C808.884 548.596 808.552 548.888 808.176 549.136C807.8 549.376 807.4 549.572 806.976 549.724C806.552 549.876 806.112 549.988 805.656 550.06C805.208 550.132 804.764 550.168 804.324 550.168C803.484 550.168 802.704 550.028 801.984 549.748C801.272 549.46 800.652 549.044 800.124 548.5C799.604 547.948 799.196 547.268 798.9 546.46C798.612 545.644 798.468 544.708 798.468 543.652C798.468 542.804 798.6 542.016 798.864 541.288C799.128 540.552 799.504 539.912 799.992 539.368C800.488 538.824 801.092 538.396 801.804 538.084C802.516 537.772 803.316 537.616 804.204 537.616C804.948 537.616 805.632 537.74 806.256 537.988C806.888 538.228 807.432 538.58 807.888 539.044C808.344 539.508 808.7 540.08 808.956 540.76C809.22 541.44 809.352 542.216 809.352 543.088C809.352 543.448 809.312 543.692 809.232 543.82C809.152 543.94 809.004 544 808.788 544H800.796C800.82 544.728 800.924 545.364 801.108 545.908C801.292 546.444 801.544 546.892 801.864 547.252C802.192 547.612 802.58 547.88 803.028 548.056C803.476 548.232 803.976 548.32 804.528 548.32C805.048 548.32 805.496 548.26 805.872 548.14C806.256 548.02 806.584 547.892 806.856 547.756C807.136 547.612 807.368 547.48 807.552 547.36C807.744 547.24 807.912 547.18 808.056 547.18C808.248 547.18 808.396 547.252 808.5 547.396L809.172 548.26ZM814.075 540.148C814.467 539.348 814.939 538.72 815.491 538.264C816.043 537.808 816.707 537.58 817.483 537.58C817.747 537.58 817.995 537.612 818.227 537.676C818.467 537.732 818.675 537.82 818.851 537.94L818.695 539.704C818.639 539.92 818.507 540.028 818.299 540.028C818.187 540.028 818.019 540.008 817.795 539.968C817.571 539.92 817.331 539.896 817.075 539.896C816.699 539.896 816.367 539.952 816.079 540.064C815.791 540.168 815.531 540.328 815.299 540.544C815.075 540.752 814.875 541.012 814.699 541.324C814.523 541.628 814.359 541.976 814.207 542.368V550H811.867V537.808H813.211C813.467 537.808 813.639 537.856 813.727 537.952C813.823 538.04 813.891 538.2 813.931 538.432L814.075 540.148ZM828.286 542.548C828.286 542.084 828.218 541.656 828.082 541.264C827.954 540.872 827.762 540.532 827.506 540.244C827.25 539.956 826.938 539.732 826.57 539.572C826.202 539.412 825.778 539.332 825.298 539.332C824.314 539.332 823.538 539.616 822.97 540.184C822.41 540.752 822.054 541.54 821.902 542.548H828.286ZM830.218 548.26C829.93 548.596 829.598 548.888 829.222 549.136C828.846 549.376 828.446 549.572 828.022 549.724C827.598 549.876 827.158 549.988 826.702 550.06C826.254 550.132 825.81 550.168 825.37 550.168C824.53 550.168 823.75 550.028 823.03 549.748C822.318 549.46 821.698 549.044 821.17 548.5C820.65 547.948 820.242 547.268 819.946 546.46C819.658 545.644 819.514 544.708 819.514 543.652C819.514 542.804 819.646 542.016 819.91 541.288C820.174 540.552 820.55 539.912 821.038 539.368C821.534 538.824 822.138 538.396 822.85 538.084C823.562 537.772 824.362 537.616 825.25 537.616C825.994 537.616 826.678 537.74 827.302 537.988C827.934 538.228 828.478 538.58 828.934 539.044C829.39 539.508 829.746 540.08 830.002 540.76C830.266 541.44 830.398 542.216 830.398 543.088C830.398 543.448 830.358 543.692 830.278 543.82C830.198 543.94 830.05 544 829.834 544H821.842C821.866 544.728 821.97 545.364 822.154 545.908C822.338 546.444 822.59 546.892 822.91 547.252C823.238 547.612 823.626 547.88 824.074 548.056C824.522 548.232 825.022 548.32 825.574 548.32C826.094 548.32 826.542 548.26 826.918 548.14C827.302 548.02 827.63 547.892 827.902 547.756C828.182 547.612 828.414 547.48 828.598 547.36C828.79 547.24 828.958 547.18 829.102 547.18C829.294 547.18 829.442 547.252 829.546 547.396L830.218 548.26ZM842.8 550.192C841.816 550.192 841.056 549.916 840.52 549.364C839.992 548.812 839.728 548.024 839.728 547V539.704H838.312C838.176 539.704 838.06 539.664 837.964 539.584C837.876 539.496 837.832 539.368 837.832 539.2V538.252L839.812 537.976L840.34 534.34C840.372 534.204 840.432 534.1 840.52 534.028C840.616 533.948 840.736 533.908 840.88 533.908H842.068V538H845.524V539.704H842.068V546.844C842.068 547.324 842.184 547.684 842.416 547.924C842.656 548.156 842.96 548.272 843.328 548.272C843.544 548.272 843.728 548.244 843.88 548.188C844.04 548.132 844.176 548.072 844.288 548.008C844.4 547.936 844.496 547.872 844.576 547.816C844.656 547.76 844.728 547.732 844.792 547.732C844.872 547.732 844.932 547.752 844.972 547.792C845.02 547.824 845.068 547.88 845.116 547.96L845.812 549.088C845.428 549.44 844.972 549.712 844.444 549.904C843.916 550.096 843.368 550.192 842.8 550.192ZM852.805 537.616C853.701 537.616 854.509 537.764 855.229 538.06C855.957 538.348 856.573 538.768 857.077 539.32C857.589 539.864 857.981 540.524 858.253 541.3C858.525 542.068 858.661 542.932 858.661 543.892C858.661 544.852 858.525 545.72 858.253 546.496C857.981 547.272 857.589 547.932 857.077 548.476C856.573 549.02 855.957 549.44 855.229 549.736C854.509 550.024 853.701 550.168 852.805 550.168C851.901 550.168 851.085 550.024 850.357 549.736C849.637 549.44 849.021 549.02 848.509 548.476C847.997 547.932 847.601 547.272 847.321 546.496C847.049 545.72 846.913 544.852 846.913 543.892C846.913 542.932 847.049 542.068 847.321 541.3C847.601 540.524 847.997 539.864 848.509 539.32C849.021 538.768 849.637 538.348 850.357 538.06C851.085 537.764 851.901 537.616 852.805 537.616ZM852.805 548.344C853.957 548.344 854.817 547.956 855.385 547.18C855.953 546.404 856.237 545.312 856.237 543.904C856.237 542.496 855.953 541.404 855.385 540.628C854.817 539.844 853.957 539.452 852.805 539.452C851.637 539.452 850.765 539.844 850.189 540.628C849.621 541.404 849.337 542.496 849.337 543.904C849.337 545.312 849.621 546.404 850.189 547.18C850.765 547.956 851.637 548.344 852.805 548.344ZM883.879 541.384C883.879 542.672 883.671 543.856 883.255 544.936C882.847 546.008 882.267 546.936 881.515 547.72C880.763 548.496 879.863 549.1 878.815 549.532C877.767 549.964 876.603 550.18 875.323 550.18C874.051 550.18 872.887 549.964 871.831 549.532C870.783 549.1 869.883 548.496 869.131 547.72C868.387 546.936 867.807 546.008 867.391 544.936C866.975 543.856 866.767 542.672 866.767 541.384C866.767 540.104 866.975 538.924 867.391 537.844C867.807 536.764 868.387 535.836 869.131 535.06C869.883 534.276 870.783 533.668 871.831 533.236C872.887 532.796 874.051 532.576 875.323 532.576C876.603 532.576 877.767 532.796 878.815 533.236C879.863 533.668 880.763 534.276 881.515 535.06C882.267 535.836 882.847 536.764 883.255 537.844C883.671 538.924 883.879 540.104 883.879 541.384ZM881.263 541.384C881.263 540.36 881.123 539.44 880.843 538.624C880.563 537.808 880.163 537.116 879.643 536.548C879.131 535.98 878.507 535.544 877.771 535.24C877.043 534.936 876.227 534.784 875.323 534.784C874.419 534.784 873.599 534.936 872.863 535.24C872.135 535.544 871.511 535.98 870.991 536.548C870.471 537.116 870.071 537.808 869.791 538.624C869.511 539.44 869.371 540.36 869.371 541.384C869.371 542.416 869.511 543.34 869.791 544.156C870.071 544.964 870.471 545.652 870.991 546.22C871.511 546.788 872.135 547.224 872.863 547.528C873.599 547.824 874.419 547.972 875.323 547.972C876.227 547.972 877.043 547.824 877.771 547.528C878.507 547.224 879.131 546.788 879.643 546.22C880.163 545.652 880.563 544.964 880.843 544.156C881.123 543.34 881.263 542.416 881.263 541.384ZM888.714 547C889.098 547.504 889.51 547.856 889.95 548.056C890.398 548.256 890.898 548.356 891.45 548.356C892.522 548.356 893.35 547.972 893.934 547.204C894.526 546.428 894.822 545.3 894.822 543.82C894.822 543.044 894.754 542.384 894.618 541.84C894.49 541.288 894.298 540.84 894.042 540.496C893.794 540.144 893.486 539.888 893.118 539.728C892.75 539.56 892.334 539.476 891.87 539.476C891.19 539.476 890.598 539.628 890.094 539.932C889.598 540.236 889.138 540.668 888.714 541.228V547ZM888.594 539.632C888.85 539.328 889.122 539.052 889.41 538.804C889.706 538.548 890.022 538.332 890.358 538.156C890.694 537.972 891.05 537.832 891.426 537.736C891.81 537.632 892.218 537.58 892.65 537.58C893.346 537.58 893.974 537.716 894.534 537.988C895.102 538.26 895.586 538.66 895.986 539.188C896.386 539.716 896.694 540.368 896.91 541.144C897.134 541.92 897.246 542.812 897.246 543.82C897.246 544.724 897.122 545.564 896.874 546.34C896.634 547.108 896.286 547.776 895.83 548.344C895.382 548.912 894.83 549.36 894.174 549.688C893.526 550.008 892.794 550.168 891.978 550.168C891.25 550.168 890.626 550.048 890.106 549.808C889.586 549.568 889.122 549.232 888.714 548.8V554.092H886.374V537.808H887.778C888.106 537.808 888.31 537.964 888.39 538.276L888.594 539.632ZM907.95 542.548C907.95 542.084 907.882 541.656 907.746 541.264C907.618 540.872 907.426 540.532 907.17 540.244C906.914 539.956 906.602 539.732 906.234 539.572C905.866 539.412 905.442 539.332 904.962 539.332C903.978 539.332 903.202 539.616 902.634 540.184C902.074 540.752 901.718 541.54 901.566 542.548H907.95ZM909.882 548.26C909.594 548.596 909.262 548.888 908.886 549.136C908.51 549.376 908.11 549.572 907.686 549.724C907.262 549.876 906.822 549.988 906.366 550.06C905.918 550.132 905.474 550.168 905.034 550.168C904.194 550.168 903.414 550.028 902.694 549.748C901.982 549.46 901.362 549.044 900.834 548.5C900.314 547.948 899.906 547.268 899.61 546.46C899.322 545.644 899.178 544.708 899.178 543.652C899.178 542.804 899.31 542.016 899.574 541.288C899.838 540.552 900.214 539.912 900.702 539.368C901.198 538.824 901.802 538.396 902.514 538.084C903.226 537.772 904.026 537.616 904.914 537.616C905.658 537.616 906.342 537.74 906.966 537.988C907.598 538.228 908.142 538.58 908.598 539.044C909.054 539.508 909.41 540.08 909.666 540.76C909.93 541.44 910.062 542.216 910.062 543.088C910.062 543.448 910.022 543.692 909.942 543.82C909.862 543.94 909.714 544 909.498 544H901.506C901.53 544.728 901.634 545.364 901.818 545.908C902.002 546.444 902.254 546.892 902.574 547.252C902.902 547.612 903.29 547.88 903.738 548.056C904.186 548.232 904.686 548.32 905.238 548.32C905.758 548.32 906.206 548.26 906.582 548.14C906.966 548.02 907.294 547.892 907.566 547.756C907.846 547.612 908.078 547.48 908.262 547.36C908.454 547.24 908.622 547.18 908.766 547.18C908.958 547.18 909.106 547.252 909.21 547.396L909.882 548.26ZM914.774 539.5C915.038 539.22 915.314 538.964 915.602 538.732C915.89 538.5 916.194 538.304 916.514 538.144C916.842 537.976 917.19 537.848 917.558 537.76C917.934 537.664 918.334 537.616 918.758 537.616C919.43 537.616 920.018 537.728 920.522 537.952C921.034 538.176 921.462 538.492 921.806 538.9C922.15 539.3 922.41 539.784 922.586 540.352C922.762 540.92 922.85 541.548 922.85 542.236V550H920.498V542.236C920.498 541.364 920.298 540.688 919.898 540.208C919.498 539.72 918.886 539.476 918.062 539.476C917.462 539.476 916.898 539.62 916.37 539.908C915.85 540.188 915.366 540.572 914.918 541.06V550H912.578V537.808H913.982C914.31 537.808 914.514 537.964 914.594 538.276L914.774 539.5Z" fill="#E2E9FD"/>
<path d="M748.758 391.706C748.614 391.958 748.458 392.144 748.29 392.264C748.134 392.372 747.936 392.426 747.696 392.426C747.444 392.426 747.168 392.336 746.868 392.156C746.58 391.964 746.232 391.754 745.824 391.526C745.416 391.298 744.936 391.094 744.384 390.914C743.844 390.722 743.202 390.626 742.458 390.626C741.786 390.626 741.198 390.71 740.694 390.878C740.19 391.034 739.764 391.256 739.416 391.544C739.08 391.832 738.828 392.18 738.66 392.588C738.492 392.984 738.408 393.422 738.408 393.902C738.408 394.514 738.576 395.024 738.912 395.432C739.26 395.84 739.716 396.188 740.28 396.476C740.844 396.764 741.486 397.022 742.206 397.25C742.926 397.478 743.664 397.724 744.42 397.988C745.176 398.24 745.914 398.54 746.634 398.888C747.354 399.224 747.996 399.656 748.56 400.184C749.124 400.7 749.574 401.336 749.91 402.092C750.258 402.848 750.432 403.766 750.432 404.846C750.432 406.022 750.228 407.126 749.82 408.158C749.424 409.178 748.836 410.072 748.056 410.84C747.288 411.596 746.346 412.196 745.23 412.64C744.114 413.072 742.836 413.288 741.396 413.288C740.568 413.288 739.752 413.204 738.948 413.036C738.144 412.88 737.37 412.652 736.626 412.352C735.894 412.052 735.204 411.692 734.556 411.272C733.908 410.852 733.332 410.384 732.828 409.868L734.25 407.546C734.37 407.378 734.526 407.24 734.718 407.132C734.91 407.012 735.114 406.952 735.33 406.952C735.63 406.952 735.954 407.078 736.302 407.33C736.65 407.57 737.064 407.84 737.544 408.14C738.024 408.44 738.582 408.716 739.218 408.968C739.866 409.208 740.64 409.328 741.54 409.328C742.92 409.328 743.988 409.004 744.744 408.356C745.5 407.696 745.878 406.754 745.878 405.53C745.878 404.846 745.704 404.288 745.356 403.856C745.02 403.424 744.57 403.064 744.006 402.776C743.442 402.476 742.8 402.224 742.08 402.02C741.36 401.816 740.628 401.594 739.884 401.354C739.14 401.114 738.408 400.826 737.688 400.49C736.968 400.154 736.326 399.716 735.762 399.176C735.198 398.636 734.742 397.964 734.394 397.16C734.058 396.344 733.89 395.342 733.89 394.154C733.89 393.206 734.076 392.282 734.448 391.382C734.832 390.482 735.384 389.684 736.104 388.988C736.824 388.292 737.712 387.734 738.768 387.314C739.824 386.894 741.036 386.684 742.404 386.684C743.94 386.684 745.356 386.924 746.652 387.404C747.948 387.884 749.052 388.556 749.964 389.42L748.758 391.706ZM769.549 394.532V413H766.831C766.243 413 765.871 412.73 765.715 412.19L765.409 410.714C764.653 411.482 763.819 412.106 762.907 412.586C761.995 413.054 760.921 413.288 759.685 413.288C758.677 413.288 757.783 413.12 757.003 412.784C756.235 412.436 755.587 411.95 755.059 411.326C754.531 410.702 754.129 409.964 753.853 409.112C753.589 408.248 753.457 407.3 753.457 406.268V394.532H757.903V406.268C757.903 407.396 758.161 408.272 758.677 408.896C759.205 409.508 759.991 409.814 761.035 409.814C761.803 409.814 762.523 409.646 763.195 409.31C763.867 408.962 764.503 408.488 765.103 407.888V394.532H769.549ZM787.188 398.438C787.056 398.606 786.924 398.738 786.792 398.834C786.672 398.93 786.492 398.978 786.252 398.978C786.024 398.978 785.802 398.912 785.586 398.78C785.37 398.636 785.112 398.48 784.812 398.312C784.512 398.132 784.152 397.976 783.732 397.844C783.324 397.7 782.814 397.628 782.202 397.628C781.422 397.628 780.738 397.772 780.15 398.06C779.562 398.336 779.07 398.738 778.674 399.266C778.29 399.794 778.002 400.436 777.81 401.192C777.618 401.936 777.522 402.782 777.522 403.73C777.522 404.714 777.624 405.59 777.828 406.358C778.044 407.126 778.35 407.774 778.746 408.302C779.142 408.818 779.622 409.214 780.186 409.49C780.75 409.754 781.386 409.886 782.094 409.886C782.802 409.886 783.372 409.802 783.804 409.634C784.248 409.454 784.62 409.262 784.92 409.058C785.22 408.842 785.478 408.65 785.694 408.482C785.922 408.302 786.174 408.212 786.45 408.212C786.81 408.212 787.08 408.35 787.26 408.626L788.538 410.246C788.046 410.822 787.512 411.308 786.936 411.704C786.36 412.088 785.76 412.4 785.136 412.64C784.524 412.868 783.888 413.03 783.228 413.126C782.58 413.222 781.932 413.27 781.284 413.27C780.144 413.27 779.07 413.06 778.062 412.64C777.054 412.208 776.172 411.584 775.416 410.768C774.66 409.952 774.06 408.956 773.616 407.78C773.184 406.592 772.968 405.242 772.968 403.73C772.968 402.374 773.16 401.12 773.544 399.968C773.94 398.804 774.516 397.802 775.272 396.962C776.028 396.11 776.964 395.444 778.08 394.964C779.196 394.484 780.48 394.244 781.932 394.244C783.312 394.244 784.518 394.466 785.55 394.91C786.594 395.354 787.53 395.99 788.358 396.818L787.188 398.438ZM804.239 398.438C804.107 398.606 803.975 398.738 803.843 398.834C803.723 398.93 803.543 398.978 803.303 398.978C803.075 398.978 802.853 398.912 802.637 398.78C802.421 398.636 802.163 398.48 801.863 398.312C801.563 398.132 801.203 397.976 800.783 397.844C800.375 397.7 799.865 397.628 799.253 397.628C798.473 397.628 797.789 397.772 797.201 398.06C796.613 398.336 796.121 398.738 795.725 399.266C795.341 399.794 795.053 400.436 794.861 401.192C794.669 401.936 794.573 402.782 794.573 403.73C794.573 404.714 794.675 405.59 794.879 406.358C795.095 407.126 795.401 407.774 795.797 408.302C796.193 408.818 796.673 409.214 797.237 409.49C797.801 409.754 798.437 409.886 799.145 409.886C799.853 409.886 800.423 409.802 800.855 409.634C801.299 409.454 801.671 409.262 801.971 409.058C802.271 408.842 802.529 408.65 802.745 408.482C802.973 408.302 803.225 408.212 803.501 408.212C803.861 408.212 804.131 408.35 804.311 408.626L805.589 410.246C805.097 410.822 804.563 411.308 803.987 411.704C803.411 412.088 802.811 412.4 802.187 412.64C801.575 412.868 800.939 413.03 800.279 413.126C799.631 413.222 798.983 413.27 798.335 413.27C797.195 413.27 796.121 413.06 795.113 412.64C794.105 412.208 793.223 411.584 792.467 410.768C791.711 409.952 791.111 408.956 790.667 407.78C790.235 406.592 790.019 405.242 790.019 403.73C790.019 402.374 790.211 401.12 790.595 399.968C790.991 398.804 791.567 397.802 792.323 396.962C793.079 396.11 794.015 395.444 795.131 394.964C796.247 394.484 797.531 394.244 798.982 394.244C800.363 394.244 801.569 394.466 802.601 394.91C803.645 395.354 804.581 395.99 805.409 396.818L804.239 398.438ZM819.957 401.642C819.957 401.066 819.873 400.526 819.705 400.022C819.549 399.506 819.309 399.056 818.985 398.672C818.661 398.288 818.247 397.988 817.743 397.772C817.251 397.544 816.675 397.43 816.015 397.43C814.731 397.43 813.717 397.796 812.973 398.528C812.241 399.26 811.773 400.298 811.569 401.642H819.957ZM811.479 404.324C811.551 405.272 811.719 406.094 811.983 406.79C812.247 407.474 812.595 408.044 813.027 408.5C813.459 408.944 813.969 409.28 814.557 409.508C815.157 409.724 815.817 409.832 816.537 409.832C817.257 409.832 817.875 409.748 818.391 409.58C818.919 409.412 819.375 409.226 819.759 409.022C820.155 408.818 820.497 408.632 820.785 408.464C821.085 408.296 821.373 408.212 821.649 408.212C822.021 408.212 822.297 408.35 822.477 408.626L823.755 410.246C823.263 410.822 822.711 411.308 822.099 411.704C821.487 412.088 820.845 412.4 820.173 412.64C819.513 412.868 818.835 413.03 818.139 413.126C817.455 413.222 816.789 413.27 816.141 413.27C814.857 413.27 813.663 413.06 812.559 412.64C811.455 412.208 810.495 411.578 809.679 410.75C808.863 409.91 808.221 408.878 807.753 407.654C807.285 406.418 807.051 404.99 807.051 403.37C807.051 402.11 807.255 400.928 807.663 399.824C808.071 398.708 808.653 397.742 809.409 396.926C810.177 396.098 811.107 395.444 812.199 394.964C813.303 394.484 814.545 394.244 815.925 394.244C817.089 394.244 818.163 394.43 819.147 394.802C820.131 395.174 820.977 395.72 821.685 396.44C822.393 397.148 822.945 398.024 823.341 399.068C823.749 400.1 823.953 401.282 823.953 402.614C823.953 403.286 823.881 403.742 823.737 403.982C823.593 404.21 823.317 404.324 822.909 404.324H811.479ZM838.558 398.132C838.438 398.324 838.312 398.462 838.18 398.546C838.048 398.618 837.88 398.654 837.676 398.654C837.46 398.654 837.226 398.594 836.974 398.474C836.734 398.354 836.452 398.222 836.128 398.078C835.804 397.922 835.432 397.784 835.012 397.664C834.604 397.544 834.118 397.484 833.554 397.484C832.678 397.484 831.988 397.67 831.484 398.042C830.992 398.414 830.746 398.9 830.746 399.5C830.746 399.896 830.872 400.232 831.124 400.508C831.388 400.772 831.73 401.006 832.15 401.21C832.582 401.414 833.068 401.6 833.608 401.768C834.148 401.924 834.694 402.098 835.246 402.29C835.81 402.482 836.362 402.704 836.902 402.956C837.442 403.196 837.922 403.508 838.342 403.892C838.774 404.264 839.116 404.714 839.368 405.242C839.632 405.77 839.764 406.406 839.764 407.15C839.764 408.038 839.602 408.86 839.278 409.616C838.966 410.36 838.498 411.008 837.874 411.56C837.25 412.1 836.476 412.526 835.552 412.838C834.64 413.138 833.584 413.288 832.384 413.288C831.748 413.288 831.124 413.228 830.512 413.108C829.912 413 829.33 412.844 828.766 412.64C828.214 412.436 827.698 412.196 827.218 411.92C826.75 411.644 826.336 411.344 825.976 411.02L827.002 409.328C827.134 409.124 827.29 408.968 827.47 408.86C827.65 408.752 827.878 408.698 828.154 408.698C828.43 408.698 828.688 408.776 828.928 408.932C829.18 409.088 829.468 409.256 829.792 409.436C830.116 409.616 830.494 409.784 830.926 409.94C831.37 410.096 831.928 410.174 832.6 410.174C833.128 410.174 833.578 410.114 833.95 409.994C834.334 409.862 834.646 409.694 834.886 409.49C835.138 409.286 835.318 409.052 835.426 408.788C835.546 408.512 835.606 408.23 835.606 407.942C835.606 407.51 835.474 407.156 835.21 406.88C834.958 406.604 834.616 406.364 834.184 406.16C833.764 405.956 833.278 405.776 832.726 405.62C832.186 405.452 831.628 405.272 831.052 405.08C830.488 404.888 829.93 404.666 829.378 404.414C828.838 404.15 828.352 403.82 827.92 403.424C827.5 403.028 827.158 402.542 826.894 401.966C826.642 401.39 826.516 400.694 826.516 399.878C826.516 399.122 826.666 398.402 826.966 397.718C827.266 397.034 827.704 396.44 828.28 395.936C828.868 395.42 829.594 395.012 830.458 394.712C831.334 394.4 832.342 394.244 833.482 394.244C834.754 394.244 835.912 394.454 836.956 394.874C838 395.294 838.87 395.846 839.566 396.53L838.558 398.132ZM854.378 398.132C854.258 398.324 854.132 398.462 854 398.546C853.868 398.618 853.7 398.654 853.496 398.654C853.28 398.654 853.046 398.594 852.794 398.474C852.554 398.354 852.272 398.222 851.948 398.078C851.624 397.922 851.252 397.784 850.832 397.664C850.424 397.544 849.938 397.484 849.374 397.484C848.498 397.484 847.808 397.67 847.304 398.042C846.812 398.414 846.566 398.9 846.566 399.5C846.566 399.896 846.692 400.232 846.944 400.508C847.208 400.772 847.55 401.006 847.97 401.21C848.402 401.414 848.888 401.6 849.428 401.768C849.968 401.924 850.514 402.098 851.066 402.29C851.63 402.482 852.182 402.704 852.722 402.956C853.262 403.196 853.742 403.508 854.162 403.892C854.594 404.264 854.936 404.714 855.188 405.242C855.452 405.77 855.584 406.406 855.584 407.15C855.584 408.038 855.422 408.86 855.098 409.616C854.786 410.36 854.318 411.008 853.694 411.56C853.07 412.1 852.296 412.526 851.372 412.838C850.46 413.138 849.404 413.288 848.204 413.288C847.568 413.288 846.944 413.228 846.332 413.108C845.732 413 845.15 412.844 844.586 412.64C844.034 412.436 843.518 412.196 843.038 411.92C842.57 411.644 842.156 411.344 841.796 411.02L842.822 409.328C842.954 409.124 843.11 408.968 843.29 408.86C843.47 408.752 843.698 408.698 843.974 408.698C844.25 408.698 844.508 408.776 844.748 408.932C845 409.088 845.288 409.256 845.612 409.436C845.936 409.616 846.314 409.784 846.746 409.94C847.19 410.096 847.748 410.174 848.42 410.174C848.948 410.174 849.398 410.114 849.77 409.994C850.154 409.862 850.466 409.694 850.706 409.49C850.958 409.286 851.138 409.052 851.246 408.788C851.366 408.512 851.426 408.23 851.426 407.942C851.426 407.51 851.294 407.156 851.03 406.88C850.778 406.604 850.436 406.364 850.004 406.16C849.584 405.956 849.098 405.776 848.546 405.62C848.006 405.452 847.448 405.272 846.872 405.08C846.308 404.888 845.75 404.666 845.198 404.414C844.658 404.15 844.172 403.82 843.74 403.424C843.32 403.028 842.978 402.542 842.714 401.966C842.462 401.39 842.336 400.694 842.336 399.878C842.336 399.122 842.486 398.402 842.786 397.718C843.086 397.034 843.524 396.44 844.1 395.936C844.688 395.42 845.414 395.012 846.278 394.712C847.154 394.4 848.162 394.244 849.302 394.244C850.574 394.244 851.732 394.454 852.776 394.874C853.82 395.294 854.69 395.846 855.386 396.53L854.378 398.132ZM863.898 386.972V397.268C863.898 398.36 863.844 399.434 863.736 400.49C863.628 401.534 863.49 402.644 863.322 403.82H860.298C860.13 402.644 859.992 401.534 859.884 400.49C859.776 399.434 859.722 398.36 859.722 397.268V386.972H863.898ZM859.02 410.552C859.02 410.18 859.086 409.826 859.218 409.49C859.362 409.154 859.554 408.866 859.794 408.626C860.046 408.386 860.34 408.194 860.676 408.05C861.012 407.906 861.372 407.834 861.756 407.834C862.128 407.834 862.482 407.906 862.818 408.05C863.154 408.194 863.442 408.386 863.682 408.626C863.934 408.866 864.132 409.154 864.276 409.49C864.42 409.826 864.492 410.18 864.492 410.552C864.492 410.936 864.42 411.296 864.276 411.632C864.132 411.956 863.934 412.238 863.682 412.478C863.442 412.718 863.154 412.904 862.818 413.036C862.482 413.18 862.128 413.252 861.756 413.252C861.372 413.252 861.012 413.18 860.676 413.036C860.34 412.904 860.046 412.718 859.794 412.478C859.554 412.238 859.362 411.956 859.218 411.632C859.086 411.296 859.02 410.936 859.02 410.552Z" fill="white"/>
<path d="M799 352C826.614 352 849 329.614 849 302C849 274.386 826.614 252 799 252C771.386 252 749 274.386 749 302C749 329.614 771.386 352 799 352Z" fill="white"/>
<g clip-path="url(#clip1_334_248)">
<path d="M794.833 308.608L813.983 289.456L816.931 292.402L794.833 314.5L781.575 301.242L784.521 298.296L794.833 308.608Z" fill="#567DF4"/>
</g>
<path d="M656.6 780C665.105 780 672 773.105 672 764.6C672 756.095 665.105 749.2 656.6 749.2C648.095 749.2 641.2 756.095 641.2 764.6C641.2 773.105 648.095 780 656.6 780Z" fill="#F3F6FF"/>
<path d="M731.6 1012.6V679C731.6 615.1 679.8 563.2 615.8 563.2C551.9 563.2 500 615 500 679V1012.6" stroke="#192342" stroke-miterlimit="10"/>
<path d="M714.9 1012.6V679C714.9 624.4 670.5 580 615.9 580C561.3 580 516.9 624.4 516.9 679V1012.6" stroke="#192342" stroke-miterlimit="10"/>
<path d="M698 1012.6V679C698 633.7 661.2 596.9 615.9 596.9C570.6 596.9 533.8 633.7 533.8 679V1012.6" stroke="#192342" stroke-miterlimit="10"/>
<path d="M550.7 1012.6V679C550.7 643.1 579.9 613.8 615.9 613.8C651.9 613.8 681.1 643 681.1 679V1012.6" stroke="#192342" stroke-miterlimit="10"/>
<path d="M567.6 1012.6V679C567.6 652.4 589.3 630.7 615.9 630.7C642.5 630.7 664.2 652.4 664.2 679V1012.6" stroke="#192342" stroke-miterlimit="10"/>
<path d="M649.9 566.4C649.9 569.9 647.1 572.8 643.5 572.8C639.9 572.8 637.1 570 637.1 566.4C637.1 562.9 639.9 560 643.5 560C647.1 560 649.9 562.9 649.9 566.4Z" fill="#F3F6FF"/>
</g>
<defs>
<clipPath id="clip0_334_248">
<rect width="1600" height="900" fill="white"/>
</clipPath>
<clipPath id="clip1_334_248">
<rect width="50" height="50" fill="white" transform="translate(774 277)"/>
</clipPath>
</defs>
</svg>
